<svg xmlns="http://www.w3.org/2000/svg" xmlns:xlink="http://www.w3.org/1999/xlink" width="1440" height="1024" viewBox="0 0 1440 1024">
    <defs>
        <path id="prefix__a" d="M0 0H1440V1024H0z"/>
    </defs>
    <g fill="none" fill-rule="evenodd">
        <mask id="prefix__b" fill="#fff">
            <use xlink:href="#prefix__a"/>
        </mask>
        <use fill="#FCFDFF" xlink:href="#prefix__a"/>
        <g mask="url(#prefix__b)" opacity=".255">
            <g stroke="#8588A0">
                <g opacity=".505">
                    <path d="M76-6.118c-20.849 0-39.724 8.45-53.387 22.113C8.951 29.658.5 48.533.5 69.382v815.36c0 4.826.463 9.642 1.382 14.38 3.97 20.467 15.861 37.387 31.876 48.197 16.015 10.81 36.154 15.512 56.621 11.541l964.617-187.14c17.03-3.304 31.84-12.2 42.613-24.6 10.774-12.4 17.514-28.306 18.407-45.63l28.44-551.612c1.054-20.447-6.138-39.45-18.696-53.736-12.558-14.285-30.484-23.852-50.897-25.427L81.807-5.895c-1.932-.149-3.87-.223-5.807-.223z" transform="translate(-402 -114) translate(986 33)"/>
                    <path d="M117 27.747c-20.849 0-39.724 8.45-53.387 22.113C49.951 63.523 41.5 82.398 41.5 103.247v749.185c0 4.839.465 9.666 1.389 14.415 3.98 20.465 15.88 37.38 31.9 48.183 16.02 10.803 36.16 15.494 56.626 11.514l887.581-172.634c17.025-3.311 31.826-12.21 42.594-24.61 10.767-12.4 17.502-28.303 18.392-45.624l26.016-505.893c1.051-20.442-6.139-39.441-18.694-53.724-12.556-14.283-30.476-23.85-50.884-25.429L122.822 27.972c-1.937-.15-3.88-.225-5.822-.225z" transform="translate(-402 -114) translate(986 33)"/>
                    <path d="M153 59.588c-20.849 0-39.724 8.45-53.387 22.113C85.951 95.364 77.5 114.24 77.5 135.088V817.19c0 4.823.462 9.634 1.38 14.368 3.967 20.468 15.856 37.39 31.869 48.203 16.013 10.813 36.151 15.517 56.62 11.55l815.443-158.073c17.033-3.301 31.844-12.195 42.62-24.596 10.776-12.4 17.518-28.307 18.412-45.633l23.701-459.347c1.055-20.448-6.137-39.453-18.696-53.74-12.56-14.286-30.486-23.854-50.901-25.427L158.803 59.81c-1.931-.149-3.867-.223-5.803-.223z" transform="translate(-402 -114) translate(986 33)"/>
                    <path d="M190 90.38c-20.849 0-39.724 8.45-53.387 22.113-13.662 13.663-22.113 32.538-22.113 53.387v620.199c0 4.82.462 9.628 1.378 14.36 3.966 20.468 15.852 37.391 31.864 48.206 16.012 10.815 36.15 15.521 56.618 11.556l746.221-144.574c17.034-3.3 31.847-12.193 42.624-24.594 10.778-12.4 17.52-28.307 18.415-45.635l21.502-416.48c1.056-20.45-6.136-39.456-18.696-53.743-12.56-14.287-30.488-23.854-50.904-25.427L195.799 90.603c-1.93-.15-3.864-.223-5.799-.223z" transform="translate(-402 -114) translate(986 33)"/>
                    <path d="M224 121.18c-20.849 0-39.724 8.45-53.387 22.113-13.662 13.663-22.113 32.538-22.113 53.386v556.268c0 4.803.458 9.596 1.369 14.312 3.952 20.47 15.827 37.402 31.832 48.227 16.005 10.825 36.14 15.544 56.61 11.592l677.01-130.703c17.042-3.29 31.865-12.18 42.651-24.58 10.787-12.4 17.537-28.31 18.435-45.645l19.279-372.11c1.06-20.457-6.134-39.469-18.698-53.76-12.564-14.29-30.499-23.858-50.922-25.426L229.78 121.401c-1.923-.148-3.85-.222-5.779-.222z" transform="translate(-402 -114) translate(986 33)"/>
                    <path d="M262 149.977c-20.849 0-39.724 8.45-53.387 22.113-13.662 13.663-22.113 32.538-22.113 53.387v496.339c0 4.825.463 9.64 1.381 14.376 3.97 20.468 15.86 37.388 31.875 48.2 16.014 10.81 36.153 15.512 56.62 11.543l605.816-117.509c17.031-3.303 31.84-12.198 42.615-24.598 10.775-12.4 17.515-28.306 18.409-45.632l17.057-330.789c1.055-20.447-6.137-39.451-18.695-53.737-12.559-14.285-30.485-23.853-50.898-25.427L267.806 150.2c-1.932-.15-3.868-.224-5.806-.224z" transform="translate(-402 -114) translate(986 33)"/>
                </g>
                <g opacity=".505">
                    <path d="M76-1.846c-20.849 0-39.724 8.45-53.387 22.114C8.951 33.93.5 52.805.5 73.654v482.689c0 4.827.463 9.642 1.382 14.38 3.972 20.468 15.863 37.388 31.878 48.198 16.015 10.81 36.154 15.51 56.621 11.54l590.215-114.52c17.03-3.305 31.838-12.2 42.612-24.6 10.774-12.401 17.513-28.307 18.406-45.632l16.566-321.351c1.054-20.447-6.138-39.45-18.696-53.736-12.558-14.285-30.483-23.853-50.896-25.428L81.808-1.622c-1.932-.15-3.87-.224-5.808-.224z" transform="translate(-402 -114)"/>
                    <path d="M101 21.733c-20.849 0-39.724 8.45-53.387 22.114C33.951 57.509 25.5 76.384 25.5 97.233v437.565c0 4.827.463 9.642 1.382 14.38 3.97 20.467 15.862 37.387 31.877 48.198 16.015 10.81 36.154 15.511 56.62 11.54l539.515-104.673c17.031-3.304 31.84-12.199 42.614-24.6 10.774-12.4 17.513-28.305 18.407-45.63l14.956-290.116c1.054-20.447-6.137-39.45-18.695-53.736-12.559-14.285-30.484-23.853-50.897-25.428L106.807 21.957c-1.932-.15-3.869-.224-5.807-.224z" transform="translate(-402 -114)"/>
                    <path d="M125 41.29c-20.849 0-39.724 8.451-53.387 22.114C57.951 77.067 49.5 95.942 49.5 116.791v393.52c0 4.82.462 9.63 1.379 14.362 3.965 20.468 15.852 37.391 31.864 48.205 16.013 10.815 36.15 15.52 56.619 11.555l490.769-95.09c17.034-3.301 31.846-12.195 42.623-24.595 10.778-12.4 17.52-28.307 18.415-45.635l13.4-259.585c1.056-20.45-6.136-39.455-18.696-53.742-12.56-14.287-30.488-23.854-50.904-25.427L130.8 41.514c-1.929-.149-3.864-.223-5.799-.223z" transform="translate(-402 -114)"/>
                    <path d="M152 61.824c-20.849 0-39.724 8.45-53.387 22.113C84.951 97.6 76.5 116.475 76.5 137.324v352.565c0 4.826.463 9.64 1.382 14.378 3.97 20.467 15.86 37.387 31.875 48.198 16.015 10.81 36.154 15.512 56.62 11.542l443.966-86.122c17.03-3.304 31.84-12.199 42.614-24.6 10.774-12.4 17.514-28.305 18.408-45.63l11.925-231.278c1.054-20.447-6.138-39.45-18.696-53.736-12.558-14.286-30.484-23.853-50.898-25.428l-455.89-35.166c-1.931-.149-3.868-.223-5.806-.223z" transform="translate(-402 -114)"/>
                    <path d="M173 84.335c-20.849 0-39.724 8.45-53.387 22.113-13.662 13.663-22.113 32.538-22.113 53.387v309.694c0 4.795.457 9.58 1.364 14.287 3.946 20.473 15.815 37.407 31.817 48.238 16.001 10.83 36.135 15.556 56.607 11.61l399.138-76.922c17.047-3.286 31.875-12.173 42.666-24.573 10.791-12.4 17.545-28.312 18.445-45.65l10.452-201.382c1.062-20.459-6.132-39.474-18.699-53.766-12.566-14.292-30.504-23.86-50.93-25.426l-409.591-31.39c-1.92-.146-3.844-.22-5.769-.22z" transform="translate(-402 -114)"/>
                    <path d="M198 100.855c-20.849 0-39.724 8.45-53.387 22.114-13.662 13.663-22.113 32.538-22.113 53.386V446.14c0 4.801.458 9.591 1.368 14.305 3.95 20.472 15.824 37.403 31.828 48.23 16.004 10.826 36.139 15.548 56.61 11.597l353.308-68.18c17.044-3.289 31.868-12.177 42.656-24.577 10.788-12.4 17.539-28.312 18.437-45.647l9.009-173.802c1.06-20.457-6.133-39.47-18.698-53.76-12.565-14.291-30.5-23.86-50.924-25.427l-362.317-27.802c-1.922-.148-3.85-.222-5.777-.222z" transform="translate(-402 -114)"/>
                </g>
            </g>
        </g>
    </g>
</svg>
