<svg xmlns="http://www.w3.org/2000/svg" width="102" height="102" viewBox="0 0 102 102">
    <g fill="none" fill-rule="evenodd">
        <g transform="translate(1 1)">
            <path stroke="#FFF" stroke-dasharray=".4" stroke-width=".2" d="M49.754 98.956c27.206 0 49.26-22.055 49.26-49.261C99.015 22.488 76.96.433 49.755.433S.493 22.488.493 49.695c0 27.206 22.055 49.26 49.26 49.26z" opacity=".36"/>
            <path stroke="#FFF" stroke-dasharray=".4" stroke-width="1.2" d="M86.232 16.586A49.261 49.261 0 1 1 13.3 82.798" opacity=".95"/>
            <path stroke="#FFF" stroke-dasharray=".4" stroke-width=".2" d="M49.754 94.03c24.485 0 44.335-19.85 44.335-44.335 0-24.486-19.85-44.335-44.335-44.335-24.486 0-44.335 19.85-44.335 44.335S25.269 94.03 49.754 94.03z" opacity=".1"/>
            <path stroke="#FFF" stroke-dasharray=".4" stroke-width="1.2" d="M30.783 9.62C52.864-.572 79.035 8.926 89.44 30.908 99.843 52.89 90.596 79.15 68.714 89.764" opacity=".51"/>
            <path stroke="#FFF" stroke-dasharray=".4" stroke-width="3.2" d="M89.823 68.665c-10.478 22.129-36.91 31.574-59.04 21.099" opacity=".11"/>
            <path stroke="#FFF" stroke-dasharray=".4" stroke-width=".2" d="M49.754 89.103c21.765 0 39.409-17.644 39.409-39.408 0-21.765-17.644-39.41-39.41-39.41-21.764 0-39.408 17.645-39.408 39.41 0 21.764 17.644 39.408 39.409 39.408z" opacity=".46"/>
            <path stroke="#FFF" stroke-dasharray=".4" stroke-width="1.2" d="M69.158 15.394c18.852 10.76 25.455 34.738 14.767 53.631C73.237 87.92 49.283 94.612 30.35 83.995" opacity=".51"/>
            <path stroke="#FFF" stroke-dasharray=".4" stroke-width=".2" d="M49.754 84.177c19.044 0 34.482-15.438 34.482-34.482 0-19.045-15.438-34.483-34.482-34.483-19.045 0-34.483 15.438-34.483 34.483 0 19.044 15.438 34.482 34.483 34.482z" opacity=".11"/>
            <path stroke="#FFF" stroke-dasharray=".4" stroke-width="1.2" d="M72.3 75.778a34.483 34.483 0 1 1-45.093-52.172" opacity=".63"/>
            <path stroke="#FFF" stroke-width="1.2" d="M.552 47.29a49.261 49.261 0 1 1 98.404 4.77" opacity=".86"/>
            <circle cx="49.857" cy="49.793" r="44.337" stroke="#FFF" stroke-width=".5" opacity=".28" transform="rotate(-89.427 49.857 49.793)"/>
            <path stroke="#FFF" stroke-width="1.2" d="M34.837 91.443A44.335 44.335 0 1 1 64.67 7.946" opacity=".94"/>
            <path stroke="#4AB3AD" stroke-width="6" d="M75.286 85.936a44.296 44.296 0 0 1-21.537 7.911" opacity=".566"/>
            <path stroke="#FFF" stroke-width="1.2" d="M11.778 60.227A39.409 39.409 0 1 1 87.73 39.163"/>
            <path stroke="#419A95" stroke-width="3" d="M11.778 39.163c5.817-20.974 27.535-33.26 48.508-27.444" opacity=".82"/>
            <circle cx="49.759" cy="49.695" r="34.483" stroke="#FFF" stroke-width=".5" opacity=".69" transform="rotate(-89.39 49.759 49.695)"/>
            <path stroke="#FFF" stroke-width="1.2" d="M52.256 15.3C71.2 16.745 85.404 33.24 84.026 52.186c-1.379 18.947-17.823 33.21-36.775 31.898" opacity=".45"/>
        </g>
        <path d="M27 27h48v48H27z"/>
        <path d="M27 27h48v48H27z"/>
        <path d="M27 27h48v48H27z"/>
        <path d="M27 27h48v48H27z"/>
        <path fill="#4AB3AD" d="M51.104 27L27 51l24 24 24-24-23.896-24zm2.607 13.529l-.726 14.949h-3.761l-.76-14.95h5.247zM53 61.026h-4v-4.035h4v4.035z"/>
    </g>
</svg>
