<svg xmlns="http://www.w3.org/2000/svg" width="42" height="42" viewBox="0 0 42 42">
    <g fill="none" fill-rule="evenodd">
        <path fill="#1c2b4b" stroke="#204590" d="M1 1h40v40H1z"/>
        <path fill="#FFF" d="M25.168 24.864c0 .061-.004.12-.006.18.002-.06.006-.119.006-.18M11.412 18.293v2.917l7.112-.497-6.83-.1 8.38-.542-8.38-.039 8.38-.54-8.38-.037 8.38-.543-8.38-.038 8.38-.544-8.662-.037M20.37 17.91l.433-2.972-5.663.144-.453 2.414-5.472.135 5.404.242 5.75.037"/>
        <path fill="#FFF" d="M9.215 17.631l-1.882.727v4.368l-1.347-.08v.895l1.347.11v.884l.364.03.315-5.795.058 5.827.32.027.32-5.854.056 5.885.482.04.33-5.925.06 5.957.424.034.328-5.99.054 6.02.553.048v-6.54l-1.782-.668M13.475 24.15v-1.057l.65-.155-2.245.06v1.023l1.595.13M12.484 28.791l-6.963-1.407v-2l.233.022v1.851l6.73 1.246v.288zM5 24.75v3.178l8.586 1.734V25.46L5 24.749zM23.676 15.034l-2.504-.048-.425 2.916 2.929-.33v-2.538"/>
        <path fill="#FFF" d="M35.818 26.38a.26.26 0 0 1-.106-.025c.216-.149.369-.579.369-1.085 0-.557-.188-1.019-.43-1.124a.29.29 0 0 1 .167-.057c.295 0 .534.513.534 1.146 0 .632-.24 1.144-.534 1.144zm-2.159.322a.25.25 0 0 1-.112-.025c.228-.165.395-.643.395-1.204 0-.615-.199-1.128-.46-1.242a.294.294 0 0 1 .177-.064c.314 0 .573.568.573 1.27 0 .696-.259 1.265-.573 1.265zm-17.4 3.05c.788.077 1.518-.777 1.631-1.907.085-.834-.189-1.584-.655-1.955.764.112 1.289 1.076 1.177 2.186-.114 1.132-.842 1.984-1.63 1.907a1.096 1.096 0 0 1-.567-.239l.045.008zm20.626-5.3a3.049 3.049 0 0 0-.259-.867 1.553 1.553 0 0 0-.373-.52.83.83 0 0 0-.55-.227l-.026.002h-1.845a.786.786 0 0 0-.264-.057l-2.78-.002-.018-1.844-2.898-.265 8.964-.053-9.556-.666v-4.25l7.297.078-6.921-1.022 8.814.51-8.078-1.346 8.444.859-9.556-1.97-1.61-.1v11.15l1.61-.036 2.537-.057.035.03h-.005c.324.332.536.882.536 1.503 0 .38-.082.732-.214 1.026l-1.152.116c.063-.222.103-.47.103-.727 0-.89-.437-1.632-1.009-1.802.321.331.534.881.534 1.503 0 .406-.091.785-.244 1.087l-1.144.117c.079-.24.122-.508.122-.789 0-.89-.431-1.631-1.007-1.804.323.336.533.884.533 1.503 0 .438-.1.838-.275 1.151l-1.133.114c.094-.253.144-.542.144-.848 0-.635-.22-1.195-.557-1.526h.34V11.348a.35.35 0 0 0-.348-.348H25a.35.35 0 0 0-.348.348v1.391c-4.738.065-5.987 1.825-5.987 1.825-.348.002-.66.05-.946.123v-2.105a.252.252 0 0 0-.25-.25h-.058a.252.252 0 0 0-.253.25v2.267c-.186.06-.367.12-.548.17l2.657-.069.754-.017 1.147.022 3.484.054v6.286l-5.06.522h5.06l-5.06.52h5.06l-5.06.52h5.06l-5.06.523h5.06l-5.06.523h5.06l-4.935.51c-.585-.959-1.501-1.578-2.569-1.578-1.43 0-2.755 1.023-3.335 2.582a4.447 4.447 0 0 0-.16.519l.415.034-.02 2.375v.294l-.018 2.16c.247.155.516.265.801.32.223.044 1.197.26 1.521.292 1.16.116 2.25-.848 2.72-2.275h.694c.29-3.96-1.43-4.998-2.432-4.998-.997 0-1.502.406-1.502.406h.009a3.058 3.058 0 0 0-.987.956l-.547-.043c.57-1.346 1.705-2.235 2.96-2.235 1.778-.001 3.165 1.903 3.132 4.114l.005-.113c.041-1.054-.213-2.032-.68-2.8h5.125c.098.162.18.352.235.56l-3.975.018v2.512l3.069-.482.158.349.908-.09.945-.096.837-.085.99-.1.79-.078 1.022-.104.75-.076c.08-.145.146-.307.193-.484.017-.06.027-.12.04-.185h.35c.145.88.53 1.51.984 1.51h1.391c.225 0 .434-.157.603-.42l1.545.008h.02c.537 0 .974-.913.974-2.041 0-.242-.018-.473-.055-.687h.263z"/>
    </g>
</svg>
