<svg xmlns="http://www.w3.org/2000/svg" width="24" height="24" viewBox="0 0 24 24">
    <g fill="none" fill-rule="evenodd">
        <path d="M0 0h24v24H0z"/>
        <path d="M0 0h24v24H0z"/>
        <path fill="none" d="M0 0h23.927v23.927H0z"/>
        <path fill="#204590" d="M11.969 10.971a2.992 2.992 0 1 0 0-5.984 2.992 2.992 0 0 0 0 5.984zm4.987 2.993a3.99 3.99 0 0 1 3.99 3.99v2.991H18.95v-2.992a1.995 1.995 0 0 0-1.995-1.995H6.982a1.995 1.995 0 0 0-1.995 1.995v2.992H2.992v-2.992a3.99 3.99 0 0 1 3.99-3.99h9.974zM11.969 2.992a4.987 4.987 0 1 1 0 9.974 4.987 4.987 0 0 1 0-9.974z"/>
    </g>
</svg>
