<svg xmlns="http://www.w3.org/2000/svg" width="24" height="24" viewBox="0 0 24 24">
    <g fill="none" fill-rule="evenodd">
        <path d="M0 0h24v24H0z"/>
        <path d="M0 0h24v24H0z"/>
        <path d="M0 0h24v24H0z"/>
        <path d="M0 0h24v24H0z"/>
        <g>
            <path fill="#FFF" fill-opacity="0" d="M0 0h23.927v23.927H0z"/>
            <path fill="#2F363C" d="M5.984 15.958h11.97v-3.99a5.984 5.984 0 0 0-11.97 0v3.99zm7.98 2.993a1.995 1.995 0 0 1-3.99 0h3.99zM11.969 1.995c.55 0 .997.446.997.997v1.06a7.98 7.98 0 0 1 6.982 7.917v5.984H3.99V11.97A7.98 7.98 0 0 1 10.97 4.05V2.992c0-.55.447-.997.998-.997z"/>
        </g>
    </g>
</svg>
