<?xml version="1.0" encoding="UTF-8"?>
<svg width="126px" height="45px" viewBox="0 0 126 45" version="1.1" xmlns="http://www.w3.org/2000/svg" xmlns:xlink="http://www.w3.org/1999/xlink">
    <!-- Generator: sketchtool 58 (101010) - https://sketch.com -->
    <title>06CED6FE-BA1C-4FD6-9491-6207BE046C75</title>
    <desc>Created with sketchtool.</desc>
    <g id="Page-1" stroke="none" stroke-width="1" fill="none" fill-rule="evenodd" opacity="0.92">
        <g id="Sign-Up" transform="translate(-473.000000, -939.000000)" fill="#3C4152">
            <g id="Group-2" transform="translate(473.000000, 890.000000)">
                <g id="Group" transform="translate(0.000000, 49.000000)">
                    <g id="CC-Logo-Final-03" transform="translate(-0.000000, 0.000000)">
                        <path d="M9.045,43.1057263 C9.045,43.1746089 8.99321229,43.2648603 8.89064246,43.3769832 C7.9876257,44.3179609 6.78846369,44.7885754 5.29215084,44.7885754 C3.76215084,44.7885754 2.5202514,44.3305307 1.56896648,43.4154469 C0.641815642,42.5302793 0.178743017,41.4130726 0.178743017,40.063324 C0.178743017,38.757067 0.632513966,37.6486592 1.53930168,36.7375978 C2.48681564,35.7832961 3.69050279,35.3068994 5.1526257,35.3068994 C6.74195531,35.3068994 7.9876257,35.7342737 8.89064246,36.5892737 C8.98893855,36.6832961 9.0377095,36.7677654 9.0377095,36.840419 C9.0377095,36.9223743 8.86726257,37.2253073 8.52636872,37.7494693 C8.18547486,38.2738827 7.97103352,38.5682682 7.8822905,38.6321229 C7.84332402,38.667067 7.79455307,38.6839106 7.73547486,38.6839106 C7.71083799,38.6839106 7.58815642,38.5984358 7.36768156,38.4264804 C7.1024581,38.2200838 6.84276536,38.0586872 6.58759777,37.9422905 C6.20019553,37.7713408 5.7977095,37.6853631 5.38039106,37.6853631 C4.65988827,37.6853631 4.08318436,37.9214246 3.65153631,38.3945531 C3.25432961,38.8322346 3.05547486,39.3739944 3.05547486,40.0185754 C3.05547486,40.6719553 3.25432961,41.2192458 3.65153631,41.6619553 C4.08318436,42.1433799 4.65988827,42.3842179 5.38039106,42.3842179 C5.80776536,42.3842179 6.21226257,42.302514 6.59513966,42.1391061 C6.84477654,42.0317598 7.10044693,41.8811732 7.36013966,41.6881006 C7.57634078,41.5241899 7.69600559,41.4434916 7.72064246,41.4434916 C7.7696648,41.4434916 7.81893855,41.4668715 7.86796089,41.5138827 C7.94639665,41.5910615 8.15958101,41.8598045 8.50776536,42.3198603 C8.86625698,42.7967598 9.045,43.0589665 9.045,43.1057263" id="Fill-2"></path>
                        <path d="M16.6243575,39.9926816 C16.6243575,39.266648 16.3772346,38.6736034 15.8812291,38.2135475 C15.3814525,37.736648 14.7187709,37.4980726 13.8946927,37.4980726 C13.1389944,37.4980726 12.7613966,37.5860615 12.7613966,37.7625419 C12.7613966,38.0162011 12.7566201,38.3978212 12.7465642,38.9063966 C12.7367598,39.4159777 12.7322346,39.797095 12.7322346,40.0505028 C12.7322346,40.2998883 12.7367598,40.6752235 12.7465642,41.1757542 C12.7566201,41.6760335 12.7613966,42.0531285 12.7613966,42.3067877 C12.7613966,42.4915642 13.1538268,42.5840782 13.9381844,42.5840782 C14.7876536,42.5840782 15.4546089,42.3369553 15.9400559,41.8429609 C16.3965922,41.3746089 16.6243575,40.757933 16.6243575,39.9926816 Z M19.4427654,39.9926816 C19.4427654,41.2562011 18.9791899,42.3517877 18.0525419,43.2799441 C17.2329888,44.1095531 16.0825978,44.5457263 14.6011173,44.5887151 C14.3162849,44.5970112 13.5336872,44.6012849 12.253324,44.6012849 C12.0132402,44.6012849 11.6512291,44.5955028 11.1685475,44.5819274 C10.6848603,44.5696089 10.3231006,44.5628212 10.0827654,44.5628212 C9.94047486,44.5628212 9.8698324,44.5132961 9.8698324,44.4144972 C9.8698324,43.9418715 9.89044693,43.231676 9.93243017,42.2844134 C9.97365922,41.3363966 9.99427374,40.6264525 9.99427374,40.1535754 C9.99427374,39.659581 9.97365922,38.9194693 9.93243017,37.9329888 C9.89044693,36.9470112 9.8698324,36.2089106 9.8698324,35.7191899 C9.8698324,35.6286872 9.94047486,35.5751397 10.0827654,35.5577933 C10.4309497,35.523352 11.0031285,35.5065084 11.7970391,35.5065084 C13.307933,35.5065084 14.2871229,35.5256145 14.7331006,35.5643296 C15.8958101,35.6674022 16.8063687,35.9255866 17.4635196,36.3376257 C18.0814525,36.7247765 18.5696648,37.2660335 18.927905,37.9618994 C19.2710615,38.6198045 19.4427654,39.2968156 19.4427654,39.9926816 L19.4427654,39.9926816 Z" id="Fill-3"></path>
                        <path d="M27.3456704,44.6724302 C26.9235754,44.6724302 26.3745251,44.6638827 25.697514,44.6462849 C24.8146089,44.6294413 24.2650559,44.6188827 24.0491061,44.6143575 L21.8488827,44.5887151 C21.6281564,44.5927374 21.311648,44.5841899 20.8998603,44.5628212 C20.757067,44.5409497 20.6861732,44.4748324 20.6861732,44.3627095 C20.6861732,43.8946089 20.6949721,43.1929609 20.712067,42.2580168 C20.7294134,41.3238268 20.7382123,40.6221788 20.7382123,40.1535754 C20.7382123,39.6555587 20.7206145,38.9086592 20.6861732,37.9141341 C20.6517318,36.9196089 20.6348883,36.1724581 20.6348883,35.6741899 C20.6348883,35.5794134 20.7082961,35.531648 20.8558659,35.531648 C21.002933,35.531648 21.2224022,35.5386872 21.5140223,35.5515084 C21.8058939,35.5643296 22.023352,35.5711173 22.1656425,35.5711173 C22.3275419,35.5711173 22.5673743,35.5630726 22.8863966,35.5484916 C23.2056704,35.532905 23.446257,35.5256145 23.6076536,35.5256145 C23.6813128,35.5256145 23.7152514,35.5660894 23.7104749,35.6480447 L23.7034358,35.7315084 C23.6446089,36.54 23.5782402,37.7534916 23.504581,39.3739944 L23.4975419,41.0756983 C23.4975419,41.6260056 23.4998045,42.027486 23.504581,42.2806425 C23.5091061,42.3324302 23.5146369,42.3842179 23.5194134,42.4355028 C23.5241899,42.4872905 23.5611453,42.5192179 23.6297765,42.5322905 C23.6348045,42.5322905 23.6984078,42.5322905 23.8210894,42.5322905 C24.2622905,42.5322905 24.9234637,42.5119274 25.8043575,42.4709497 C26.6847486,42.4302235 27.3456704,42.4096089 27.7868715,42.4096089 C27.9198603,42.4096089 27.9859777,42.4593855 27.9859777,42.5581844 C27.9859777,43.2932682 27.9241341,43.9267877 27.8019553,44.4597486 C27.7773184,44.5711173 27.7262849,44.6377374 27.6475978,44.6596089 C27.6229609,44.6681564 27.5226536,44.6724302 27.3456704,44.6724302" id="Fill-4"></path>
                        <path d="M41.1873184,43.1057263 C41.1873184,43.1746089 41.1352793,43.2648603 41.0327095,43.3769832 C40.1299441,44.3179609 38.9305307,44.7885754 37.4342179,44.7885754 C35.9034637,44.7885754 34.6625698,44.3305307 33.7112849,43.4154469 C32.7836313,42.5302793 32.3203073,41.4130726 32.3203073,40.063324 C32.3203073,38.757067 32.7740782,37.6486592 33.6813687,36.7375978 C34.6281285,35.7832961 35.8325698,35.3068994 37.2949441,35.3068994 C38.8835196,35.3068994 40.1299441,35.7342737 41.0327095,36.5892737 C41.1307542,36.6832961 41.1800279,36.7677654 41.1800279,36.840419 C41.1800279,36.9223743 41.0090782,37.2253073 40.6686872,37.7494693 C40.3275419,38.2738827 40.1128492,38.5682682 40.0246089,38.6321229 C39.9848883,38.667067 39.9361173,38.6839106 39.8772905,38.6839106 C39.8526536,38.6839106 39.7299721,38.5984358 39.5092458,38.4264804 C39.2445251,38.2200838 38.9843296,38.0586872 38.7294134,37.9422905 C38.3415084,37.7713408 37.9392737,37.6853631 37.5224581,37.6853631 C36.8017039,37.6853631 36.2252514,37.9214246 35.7936034,38.3945531 C35.3961453,38.8322346 35.1972905,39.3739944 35.1972905,40.0185754 C35.1972905,40.6719553 35.3961453,41.2192458 35.7936034,41.6619553 C36.2252514,42.1433799 36.8017039,42.3842179 37.5224581,42.3842179 C37.9490782,42.3842179 38.3538268,42.302514 38.7369553,42.1391061 C38.9868436,42.0317598 39.2420112,41.8811732 39.5017039,41.6881006 C39.7181564,41.5241899 39.8380726,41.4434916 39.8622067,41.4434916 C39.9112291,41.4434916 39.9607542,41.4668715 40.0097765,41.5138827 C40.0879609,41.5910615 40.301648,41.8598045 40.6498324,42.3198603 C41.0080726,42.7967598 41.1873184,43.0589665 41.1873184,43.1057263" id="Fill-5"></path>
                        <path d="M49.4137709,40.0376816 C49.4137709,39.3931006 49.1905307,38.8455587 48.7445531,38.3945531 C48.2784637,37.9214246 47.6824022,37.6853631 46.9561173,37.6853631 C46.2642737,37.6853631 45.6782682,37.9299721 45.1973464,38.4196927 C44.7315084,38.8928212 44.4984637,39.4363408 44.4984637,40.0505028 C44.4984637,40.7084078 44.716676,41.2562011 45.153352,41.6943855 C45.6144134,42.1544413 46.2152514,42.3842179 46.9561173,42.3842179 C47.6479609,42.3842179 48.2364804,42.1411173 48.7224302,41.6559218 C49.1839944,41.1918436 49.4137709,40.6523464 49.4137709,40.0376816 Z M52.202514,40.0505028 C52.202514,41.3912011 51.7145531,42.5151955 50.7383799,43.4212291 C49.7423464,44.3415922 48.482095,44.8013966 46.9561173,44.8013966 C45.4401955,44.8013966 44.1824581,44.337067 43.1813966,43.4089106 C42.1999441,42.5026257 41.7097207,41.3826536 41.7097207,40.0505028 C41.7097207,38.7143296 42.1999441,37.590838 43.1813966,36.6792737 C44.1824581,35.7468436 45.4401955,35.2805028 46.9561173,35.2805028 C48.4619832,35.2805028 49.7182123,35.7468436 50.7235475,36.6792737 C51.7097765,37.5991341 52.202514,38.7226257 52.202514,40.0505028 L52.202514,40.0505028 Z" id="Fill-6"></path>
                        <path d="M63.1453073,35.7191899 C63.1453073,36.2089106 63.121676,36.9447486 63.0749162,37.9272067 C63.027905,38.9086592 63.0052793,39.6465084 63.0052793,40.1410056 L63.0052793,44.3888547 C63.0052793,44.5047486 62.9343855,44.5628212 62.7915922,44.5628212 C62.6741899,44.5628212 62.4964525,44.567095 62.2578771,44.5758939 C62.0203073,44.5841899 61.842067,44.5887151 61.7246648,44.5887151 C61.5972067,44.5887151 61.4056425,44.5801676 61.1502235,44.5628212 C60.8958101,44.5457263 60.7039944,44.5369274 60.5767877,44.5369274 C60.4885475,44.5369274 60.3832123,44.4665363 60.2605307,44.3244972 C59.907067,43.9076816 59.112905,42.9837989 57.8757821,41.5528492 C57.5374022,41.1528771 57.0222905,40.5641061 56.3306983,39.7865363 C56.3110894,39.7606425 56.2746369,39.735 56.2203352,39.7091061 C56.1813687,39.7392737 56.1615084,39.7865363 56.1615084,39.8506425 C56.1615084,40.349162 56.1775978,41.0968156 56.2097765,42.0941061 C56.2414525,43.0911453 56.2570391,43.8385475 56.2570391,44.337067 C56.2570391,44.4874022 56.1911732,44.5628212 56.0584358,44.5628212 L53.5127933,44.5628212 C53.3702514,44.5628212 53.2993575,44.4962011 53.2993575,44.3627095 C53.2993575,43.8993855 53.325,43.198743 53.3765363,42.2612849 C53.4275698,41.3248324 53.4537151,40.6221788 53.4537151,40.1535754 C53.4537151,39.659581 53.4303352,38.9207263 53.3840782,37.9367598 C53.337067,36.9527933 53.3139385,36.2154469 53.3139385,35.7254749 C53.3139385,35.6314525 53.4094693,35.5836872 53.6010335,35.5836872 C53.8848603,35.5836872 54.2358101,35.5660894 54.6531285,35.531648 C54.7514246,35.523352 54.945,35.4956983 55.2341061,35.4484358 C55.4802235,35.4097207 55.6735475,35.3901117 55.815838,35.3901117 C55.8746648,35.3901117 55.9651676,35.4632682 56.0878492,35.6093296 L58.8323464,38.9036313 C59.0782123,39.1997765 59.4482682,39.6339385 59.9437709,40.2053631 C60.0662011,40.3386034 60.1717877,40.4052235 60.2605307,40.4052235 C60.3238827,40.4052235 60.3563128,40.2377933 60.3563128,39.9024302 C60.3563128,39.4506704 60.3276536,38.7724022 60.2713408,37.8658659 C60.2147765,36.9585754 60.1868715,36.2777933 60.1868715,35.8220112 C60.1868715,35.6636313 60.237905,35.5836872 60.3412291,35.5836872 C60.6351117,35.5836872 61.0793296,35.5728771 61.6728771,35.5515084 C62.2669274,35.5301397 62.7106425,35.5193296 63.0052793,35.5193296 C63.0982961,35.5193296 63.1453073,35.5859497 63.1453073,35.7191899" id="Fill-7"></path>
                        <path d="M69.5322905,41.5975978 C69.5322905,42.4699441 69.1122067,43.2178492 68.2737989,43.8405587 C67.5377095,44.3913687 66.6422346,44.7410615 65.5881285,44.8913966 C65.5481564,44.8956704 65.5167318,44.897933 65.4918436,44.897933 C65.3789665,44.897933 65.1288268,44.5965084 64.7411732,43.9924022 C64.3540223,43.3880447 64.1606983,43.0202514 64.1606983,42.8867598 C64.1606983,42.8397486 64.1968994,42.8098324 64.2705587,42.7967598 C64.9815084,42.6547207 65.4523743,42.5345531 65.6836592,42.4355028 C66.193743,42.212514 66.4489106,41.8811732 66.4489106,41.4434916 C66.4489106,41.1636872 66.2817318,40.8522067 65.9483799,40.5080447 C65.3694134,39.9240503 65.0551676,39.5992458 65.0061453,39.5351397 C64.667514,39.0884078 64.4988268,38.594162 64.4988268,38.0521508 C64.4988268,37.2660335 64.9131285,36.6126536 65.7422346,36.092514 C66.4192458,35.6636313 67.2508659,35.3838268 68.237095,35.2548603 C68.2908939,35.2505866 68.3323743,35.248324 68.3622905,35.248324 C68.4356983,35.248324 68.4947765,35.3001117 68.5382682,35.4034358 C68.6659777,35.7169274 68.9626257,36.2843296 69.4292179,37.1051397 C69.4435475,37.1307821 69.4518436,37.1524022 69.4518436,37.1694972 C69.4518436,37.2426536 69.4068436,37.2788547 69.3181006,37.2788547 C69.2793855,37.2788547 69.2135196,37.2723184 69.1194972,37.2594972 C69.0272346,37.246676 68.955838,37.2396369 68.9065642,37.2396369 C68.5531006,37.2396369 68.2436313,37.3110335 67.979162,37.453324 C67.6603911,37.6162291 67.5015084,37.8439944 67.5015084,38.1363687 C67.5015084,38.3988268 67.677486,38.7206145 68.0309497,39.1029888 C68.6536592,39.7908101 68.9799721,40.1518156 69.0096369,40.186257 C69.3575698,40.6588827 69.5322905,41.1292458 69.5322905,41.5975978" id="Fill-8"></path>
                        <path d="M79.5396369,41.3977374 C79.5396369,42.493324 79.3900559,43.2409777 79.0908939,43.6412011 C78.540838,44.3717598 77.1707263,44.7370391 74.9777933,44.7370391 C73.9862849,44.7370391 73.2232961,44.6701676 72.6890782,44.5369274 C71.8355866,44.3222346 71.281257,43.9114525 71.0255866,43.3060894 C70.8981285,43.0094413 70.8347765,42.4807542 70.8347765,41.7202793 C70.8347765,41.5440503 70.8415642,41.2818436 70.8568994,40.9339106 C70.8712291,40.5857263 70.8782682,40.3257821 70.8782682,40.1535754 C70.8782682,39.6555587 70.8516201,38.907905 70.7978212,37.9106145 C70.7440223,36.9138268 70.7171229,36.1681844 70.7171229,35.6741899 C70.7171229,35.5711173 70.7689106,35.5193296 70.8712291,35.5193296 C71.1706425,35.5193296 71.6231564,35.5301397 72.2295251,35.5515084 C72.8346369,35.5728771 73.2874022,35.5836872 73.5863128,35.5836872 C73.708743,35.5836872 73.7705866,35.6314525 73.7705866,35.7254749 C73.7705866,36.2926257 73.7492179,37.1425978 73.7079888,38.2753911 C73.6665084,39.406676 73.6453911,40.2568994 73.6453911,40.8240503 C73.6453911,41.4990503 73.727095,41.9543296 73.8882402,42.1903911 C74.1041899,42.5131844 74.5554469,42.674581 75.2422626,42.674581 C76.2481006,42.674581 76.7506425,42.2467039 76.7506425,41.3912011 C76.7506425,40.7684916 76.7335475,39.8340503 76.7001117,38.5876257 C76.665419,37.3414525 76.6475698,36.4067598 76.6475698,35.7832961 C76.6475698,35.6503073 76.709162,35.5836872 76.8323464,35.5836872 C77.1212011,35.5836872 77.5573743,35.5728771 78.1416201,35.5515084 C78.7251117,35.5301397 79.1625419,35.5193296 79.4513966,35.5193296 C79.5934358,35.5193296 79.6650838,35.5711173 79.6650838,35.6741899 C79.6650838,36.1681844 79.6417039,36.9138268 79.5951955,37.9106145 C79.5484358,38.907905 79.5248045,39.6555587 79.5248045,40.1535754 C79.5248045,40.2915922 79.5273184,40.4989944 79.5325978,40.7760335 C79.5373743,41.053324 79.5396369,41.2604749 79.5396369,41.3977374" id="Fill-9"></path>
                        <path d="M87.751257,44.6724302 C87.329162,44.6724302 86.7801117,44.6638827 86.1028492,44.6462849 C85.2196927,44.6294413 84.6701397,44.6188827 84.4546927,44.6143575 L82.2549721,44.5887151 C82.0339944,44.5927374 81.7177374,44.5841899 81.3056983,44.5628212 C81.162905,44.5409497 81.092514,44.4748324 81.092514,44.3627095 C81.092514,43.8946089 81.1005587,43.1929609 81.1176536,42.2580168 C81.135,41.3238268 81.1435475,40.6221788 81.1435475,40.1535754 C81.1435475,39.6555587 81.1262011,38.9086592 81.092514,37.9141341 C81.058324,36.9196089 81.0407263,36.1724581 81.0407263,35.6741899 C81.0407263,35.5794134 81.1146369,35.531648 81.2609497,35.531648 C81.4082682,35.531648 81.6284916,35.5386872 81.9203631,35.5515084 C82.2119832,35.5643296 82.4286872,35.5711173 82.5712291,35.5711173 C82.7328771,35.5711173 82.9729609,35.5630726 83.2917318,35.5484916 C83.6107542,35.532905 83.8518436,35.5256145 84.0132402,35.5256145 C84.0868994,35.5256145 84.1213408,35.5660894 84.1163128,35.6480447 L84.1085196,35.7315084 C84.0499441,36.54 83.9840782,37.7534916 83.9099162,39.3739944 L83.9026257,41.0756983 C83.9026257,41.6260056 83.9051397,42.027486 83.9099162,42.2806425 C83.9154469,42.3324302 83.9199721,42.3842179 83.925,42.4355028 C83.9295251,42.4872905 83.9662291,42.5192179 84.0351117,42.5322905 C84.0396369,42.5322905 84.1039944,42.5322905 84.2271788,42.5322905 C84.6681285,42.5322905 85.3285475,42.5119274 86.2101955,42.4709497 C87.0903352,42.4302235 87.751257,42.4096089 88.1929609,42.4096089 C88.3251955,42.4096089 88.392067,42.4593855 88.392067,42.5581844 C88.392067,43.2932682 88.3299721,43.9267877 88.2077933,44.4597486 C88.1826536,44.5711173 88.1318715,44.6377374 88.0526816,44.6596089 C88.0287989,44.6681564 87.9272346,44.6724302 87.751257,44.6724302" id="Fill-10"></path>
                        <path d="M96.3972905,37.4912849 C96.3972905,37.577514 96.3432402,37.6205028 96.2363966,37.6205028 C96.0491061,37.6205028 95.311257,37.5885754 94.0203352,37.5239665 C93.991676,38.611257 93.9763408,39.3694693 93.9763408,39.7996089 C93.9763408,40.3059218 93.9999721,41.069162 94.0462291,42.0875698 C94.0929888,43.1057263 94.1161173,43.8689665 94.1161173,44.3757821 C94.1161173,44.457486 94.0942458,44.5090223 94.05,44.5306425 C94.035419,44.5394413 93.9670391,44.55 93.8441061,44.5628212 C93.5494693,44.5970112 93.1180726,44.6143575 92.5486592,44.6143575 C91.9163966,44.6143575 91.4721788,44.5970112 91.217514,44.5628212 C91.0797486,44.5409497 91.0111173,44.4748324 91.0111173,44.3627095 C91.0111173,43.8556425 91.0357542,43.0951676 91.0852793,42.0807821 C91.1340503,41.0674022 91.1576816,40.3059218 91.1576816,39.7996089 C91.1576816,39.4639944 91.138324,38.7163408 91.0993575,37.5561453 C90.1181564,37.6423743 89.3355587,37.6853631 88.7523184,37.6853631 C88.6736313,37.6853631 88.6346648,37.6634916 88.6346648,37.6205028 C88.6346648,37.5644413 88.6691061,37.3992737 88.7372346,37.1242458 C88.815419,36.8238268 88.8594134,36.6410615 88.8699721,36.5762011 C88.8845531,36.3743296 88.9018994,36.1724581 88.921257,35.9705866 C88.9559497,35.6480447 89.0145251,35.486648 89.097486,35.486648 C89.1075419,35.486648 89.1422346,35.489162 89.2008101,35.4934358 C89.9957263,35.5836872 91.1707542,35.6286872 92.7261453,35.6286872 C93.1675978,35.6286872 93.9813687,35.5882123 95.1687151,35.5065084 C95.806257,35.4632682 96.1270391,35.441648 96.1330726,35.441648 C96.2306145,35.441648 96.2869274,35.4471788 96.3020112,35.4577374 C96.3165922,35.4687989 96.3261453,35.5107821 96.3311732,35.5836872 C96.3311732,35.6990782 96.3261453,35.8607263 96.3165922,36.0671229 C96.3065363,36.2951397 96.3020112,36.4560335 96.3020112,36.5503073 C96.3020112,36.6581564 96.3175978,36.8157821 96.3495251,37.0244413 C96.3819553,37.2328492 96.3972905,37.3884637 96.3972905,37.4912849" id="Fill-11"></path>
                        <path d="M101.673855,38.5293017 C101.570028,38.718352 101.396564,39.1291341 101.151201,39.7606425 C100.886732,40.4311173 100.75324,40.8240503 100.75324,40.9401955 C100.75324,41.0178771 100.900559,41.0608659 101.195196,41.069162 C101.347039,41.0774581 101.597933,41.0822346 101.946369,41.0822346 C102.269665,41.0822346 102.448156,41.0480447 102.482598,40.9786592 C102.492654,40.9577933 102.497682,40.9273743 102.497682,40.8884078 C102.497682,40.7471229 102.384553,40.3559497 102.15905,39.7156425 C101.938324,39.0969553 101.776676,38.7015084 101.673855,38.5293017 Z M106.890587,44.4014246 C106.890587,44.4788547 106.828994,44.532905 106.707067,44.5628212 C106.56,44.5970112 106.103464,44.6143575 105.337961,44.6143575 C104.636816,44.6143575 104.185559,44.5970112 103.983939,44.5628212 C103.817263,44.532905 103.711676,44.4363687 103.667682,44.2729609 C103.500754,43.6542737 103.371034,43.3231844 103.277765,43.2799441 C103.19933,43.2502793 102.54243,43.2349441 101.30581,43.2349441 C100.471425,43.2349441 100.027709,43.2543017 99.9744134,43.2932682 C99.8906983,43.361648 99.7971788,43.5921788 99.6941061,43.9825978 C99.6005866,44.339581 99.4877095,44.532905 99.3552235,44.5628212 C99.1887989,44.5970112 98.6294413,44.6143575 97.6776536,44.6143575 C96.9279888,44.6143575 96.5518994,44.5520112 96.5518994,44.4275698 C96.5518994,44.3156983 97.1059777,42.9428212 98.2151397,40.3081844 C99.4173184,37.4588547 100.068939,35.8931564 100.172765,35.6093296 C100.231089,35.4464246 100.299972,35.3644693 100.378408,35.3644693 C100.510894,35.3644693 100.716034,35.3752793 100.993324,35.3968994 C101.270615,35.4182682 101.47676,35.4288268 101.615028,35.4288268 C101.747514,35.4288268 101.942598,35.4220391 102.199274,35.4064525 C102.457207,35.3916201 102.649525,35.3838268 102.777235,35.3838268 C102.870503,35.3838268 102.956732,35.4549721 103.034916,35.596257 C103.275503,36.0477654 103.977402,37.5946089 105.139358,40.2377933 C106.306844,42.8975698 106.890587,44.2857821 106.890587,44.4014246 L106.890587,44.4014246 Z" id="Fill-12"></path>
                        <path d="M117.486955,35.7191899 C117.486955,36.2089106 117.463324,36.9447486 117.417318,37.9272067 C117.370307,38.9086592 117.346676,39.6465084 117.346676,40.1410056 L117.346676,44.3888547 C117.346676,44.5047486 117.275531,44.5628212 117.133743,44.5628212 C117.016089,44.5628212 116.837598,44.567095 116.600531,44.5758939 C116.362207,44.5841899 116.184218,44.5887151 116.067067,44.5887151 C115.939358,44.5887151 115.748045,44.5801676 115.492877,44.5628212 C115.237458,44.5457263 115.046648,44.5369274 114.918939,44.5369274 C114.830447,44.5369274 114.725615,44.4665363 114.602682,44.3244972 C114.248966,43.9076816 113.45405,42.9837989 112.218184,41.5528492 C111.879302,41.1528771 111.364693,40.5641061 110.673101,39.7865363 C110.65324,39.7606425 110.616788,39.735 110.562989,39.7091061 C110.523017,39.7392737 110.503408,39.7865363 110.503408,39.8506425 C110.503408,40.349162 110.519749,41.0968156 110.55067,42.0941061 C110.583101,43.0911453 110.599693,43.8385475 110.599693,44.337067 C110.599693,44.4874022 110.533073,44.5628212 110.400587,44.5628212 L107.854441,44.5628212 C107.712402,44.5628212 107.641006,44.4962011 107.641006,44.3627095 C107.641006,43.8993855 107.667402,43.198743 107.718184,42.2612849 C107.769972,41.3248324 107.795866,40.6221788 107.795866,40.1535754 C107.795866,39.659581 107.772486,38.9207263 107.725726,37.9367598 C107.679218,36.9527933 107.655838,36.2154469 107.655838,35.7254749 C107.655838,35.6314525 107.750866,35.5836872 107.942933,35.5836872 C108.227263,35.5836872 108.577961,35.5660894 108.995782,35.531648 C109.093575,35.523352 109.287151,35.4956983 109.576257,35.4484358 C109.82162,35.4097207 110.015447,35.3901117 110.157737,35.3901117 C110.216564,35.3901117 110.30757,35.4632682 110.430754,35.6093296 L113.175251,38.9036313 C113.41986,39.1997765 113.789916,39.6339385 114.285922,40.2053631 C114.408101,40.3386034 114.513939,40.4052235 114.602682,40.4052235 C114.666285,40.4052235 114.697961,40.2377933 114.697961,39.9024302 C114.697961,39.4506704 114.669553,38.7724022 114.61324,37.8658659 C114.556927,36.9585754 114.528268,36.2777933 114.528268,35.8220112 C114.528268,35.6636313 114.580307,35.5836872 114.683128,35.5836872 C114.977514,35.5836872 115.42148,35.5728771 116.015028,35.5515084 C116.608827,35.5301397 117.052793,35.5193296 117.346676,35.5193296 C117.440447,35.5193296 117.486955,35.5859497 117.486955,35.7191899" id="Fill-13"></path>
                        <path d="M126.022374,37.4912849 C126.022374,37.577514 125.968827,37.6205028 125.860726,37.6205028 C125.67419,37.6205028 124.936844,37.5885754 123.645922,37.5239665 C123.617011,38.611257 123.601676,39.3694693 123.601676,39.7996089 C123.601676,40.3059218 123.625307,41.069162 123.671564,42.0875698 C123.718324,43.1057263 123.741704,43.8689665 123.741704,44.3757821 C123.741704,44.457486 123.719581,44.5090223 123.675335,44.5306425 C123.661006,44.5394413 123.59162,44.55 123.469693,44.5628212 C123.175056,44.5970112 122.743659,44.6143575 122.173994,44.6143575 C121.54148,44.6143575 121.097514,44.5970112 120.842095,44.5628212 C120.705335,44.5409497 120.636453,44.4748324 120.636453,44.3627095 C120.636453,43.8556425 120.661089,43.0951676 120.709609,42.0807821 C120.758883,41.0674022 120.783771,40.3059218 120.783771,39.7996089 C120.783771,39.4639944 120.763911,38.7163408 120.724944,37.5561453 C119.743994,37.6423743 118.960642,37.6853631 118.377402,37.6853631 C118.298966,37.6853631 118.26,37.6634916 118.26,37.6205028 C118.26,37.5644413 118.293687,37.3992737 118.362067,37.1242458 C118.440754,36.8238268 118.485503,36.6410615 118.495056,36.5762011 C118.509385,36.3743296 118.527486,36.1724581 118.546844,35.9705866 C118.580782,35.6480447 118.640112,35.486648 118.723827,35.486648 C118.733128,35.486648 118.767318,35.489162 118.826397,35.4934358 C119.621313,35.5836872 120.795587,35.6286872 122.351732,35.6286872 C122.792179,35.6286872 123.606201,35.5882123 124.793799,35.5065084 C125.431592,35.4632682 125.753631,35.441648 125.757905,35.441648 C125.856201,35.441648 125.912514,35.4471788 125.926844,35.4577374 C125.942179,35.4687989 125.95148,35.5107821 125.956508,35.5836872 C125.956508,35.6990782 125.95148,35.8607263 125.942179,36.0671229 C125.932123,36.2951397 125.926844,36.4560335 125.926844,36.5503073 C125.926844,36.6581564 125.942682,36.8157821 125.975112,37.0244413 C126.007291,37.2328492 126.022374,37.3884637 126.022374,37.4912849" id="Fill-14"></path>
                        <path d="M42.57,20.2281285 C42.57,20.2281285 42.6036872,20.2484916 42.6690503,20.2882123 C42.7193296,20.3201397 42.8168715,20.3764525 42.9496089,20.4523743 C43.2150838,20.6006983 43.6132961,20.8221788 44.1439944,21.0828771 C45.198352,21.6098045 46.7648045,22.3051676 48.7136313,22.9811732 C49.6885475,23.3193017 50.7610056,23.6453631 51.9076257,23.9540782 C53.057514,24.2477095 54.2795531,24.5388268 55.5609218,24.7570391 C56.8395251,24.9953631 58.1756983,25.1605307 59.5390223,25.2952793 C60.9043575,25.4031285 62.2981006,25.4891061 63.6943575,25.4750279 C64.0432961,25.4727654 64.3932402,25.4787989 64.7424302,25.47 C65.0916201,25.4559218 65.4403073,25.4418436 65.7877374,25.4272626 C66.4858659,25.4121788 67.1764525,25.3407821 67.8647765,25.287486 C69.2399162,25.1653073 70.5889106,24.9792737 71.8881285,24.7489944 C72.0512849,24.7218436 72.2134358,24.6949441 72.3748324,24.6680447 C72.5347207,24.6343575 72.6938547,24.6011732 72.8527374,24.5679888 C73.1702514,24.5008659 73.4844972,24.4342458 73.7957263,24.3683799 C74.4209497,24.2479609 75.0212849,24.0825419 75.6093017,23.9317039 C75.9034358,23.8557821 76.1932961,23.7808659 76.4791341,23.7072067 C76.7637151,23.6302793 77.0389944,23.5382682 77.3135196,23.4568156 C77.8593017,23.2863687 78.391257,23.1345251 78.8950559,22.9653352 C79.3960894,22.787095 79.8760056,22.6163966 80.3322905,22.4544972 C80.5603073,22.3722905 80.7848045,22.2963687 80.998743,22.2146648 C81.2119274,22.1276816 81.418324,22.0437151 81.6186872,21.9620112 C82.4166201,21.6294134 83.1278212,21.3682123 83.6861732,21.0936872 C84.8177095,20.5730447 85.4648045,20.2751397 85.4648045,20.2751397 C85.4648045,20.2751397 84.8431006,20.624581 83.7565642,21.2357263 C83.2185754,21.5560056 82.5307542,21.8732682 81.7564525,22.2727374 C81.5618715,22.3710335 81.3610056,22.4718436 81.1543575,22.5764246 C80.9451955,22.6759777 80.7272346,22.7705028 80.5044972,22.8713128 C80.0582682,23.0719274 79.589162,23.2831006 79.0994413,23.503324 C78.6056983,23.715 78.0817877,23.9115922 77.5432961,24.1285475 C77.2735475,24.2333799 77.0012849,24.3490223 76.7194693,24.4500838 C76.436648,24.5483799 76.1485475,24.6476816 75.8574302,24.748743 C75.2739385,24.9498603 74.6766201,25.1675698 74.0511453,25.3412849 C73.7396648,25.4343017 73.4251676,25.5275698 73.1074022,25.622095 C72.9482682,25.6693575 72.7886313,25.7163687 72.6279888,25.7641341 C72.4655866,25.8046089 72.3026816,25.8455866 72.1387709,25.8865642 C70.8315084,26.2294693 69.464162,26.5324022 68.0606145,26.7727374 C67.3577095,26.8848603 66.6497765,27.0150838 65.9317877,27.09 C65.5735475,27.133743 65.2143017,27.177486 64.8545531,27.2212291 C64.4940503,27.2594413 64.1322905,27.2830726 63.7705307,27.3147486 C62.3232402,27.4462291 60.867905,27.4753911 59.4331844,27.4768994 C57.9994693,27.4522626 56.5843575,27.3924302 55.2210335,27.2511453 C53.8549441,27.1302235 52.5421508,26.9288547 51.2992458,26.7159218 C50.0591061,26.4884078 48.8913687,26.2339944 47.8214246,25.9569553 C45.6810335,25.4038827 43.9285475,24.7919832 42.7102793,24.3020112 C42.1003911,24.0611732 41.6227374,23.8454749 41.2924022,23.6943855 C41.1279888,23.6177095 40.9987709,23.5561173 40.8987151,23.5050838 C40.8122346,23.4618436 40.7682402,23.4394693 40.7682402,23.4394693 L42.57,20.2281285" id="Fill-15"></path>
                        <polyline id="Fill-16" points="43.3908101 13.891676 47.7884916 14.9213966 43.2751676 14.7594972 43.3908101 13.891676"></polyline>
                        <polyline id="Fill-17" points="43.3910615 14.626257 45.8057263 15.3910056 43.2746648 15.4935754 43.3910615 14.626257"></polyline>
                        <polyline id="Fill-18" points="43.3908101 15.3163408 44.9824022 15.9702235 43.275419 16.1839106 43.3908101 15.3163408"></polyline>
                        <polyline id="Fill-19" points="43.3701955 15.9765084 44.6198883 16.5227933 43.2960335 16.8491061 43.3701955 15.9765084"></polyline>
                        <polyline id="Fill-20" points="42.5136872 19.0845251 46.8030168 20.4498603 42.3309218 19.9410335 42.5136872 19.0845251"></polyline>
                        <polyline id="Fill-21" points="42.8211453 18.4032402 45.161648 19.351257 42.6381285 19.2594972 42.8211453 18.4032402"></polyline>
                        <polyline id="Fill-22" points="43.11 17.7631844 44.6392458 18.5389944 42.9264804 18.6189385 43.11 17.7631844"></polyline>
                        <polyline id="Fill-23" points="43.302067 0.752681564 47.6994972 1.78189944 43.1861732 1.62075419 43.302067 0.752681564"></polyline>
                        <polyline id="Fill-24" points="43.3023184 1.48726257 45.7169832 2.25251397 43.1859218 2.3550838 43.3023184 1.48726257"></polyline>
                        <polyline id="Fill-25" points="43.3023184 2.17759777 44.8934078 2.83223464 43.1859218 3.0451676 43.3023184 2.17759777"></polyline>
                        <polyline id="Fill-26" points="43.2814525 2.83726257 44.5313966 3.38379888 43.2067877 3.70935754 43.2814525 2.83726257"></polyline>
                        <polyline id="Fill-27" points="42.4256983 5.94603352 46.7147765 7.31111732 42.2419274 6.80203911 42.4256983 5.94603352"></polyline>
                        <polyline id="Fill-28" points="42.7324022 5.26424581 45.0726536 6.21251397 42.5493855 6.1202514 42.7324022 5.26424581"></polyline>
                        <polyline id="Fill-29" points="43.0207542 4.62494413 44.5507542 5.39949721 42.837486 5.48069832 43.0207542 4.62494413"></polyline>
                        <polyline id="Fill-30" points="43.6640782 20.4053631 43.308352 0.759972067 40.7805587 1.78189944 40.7363128 23.4163408 48.871257 23.1355307 48.2218994 20.9229888 43.6640782 20.4053631"></polyline>
                        <polyline id="Fill-31" points="42.2821508 11.9312849 46.5717318 13.2971229 42.0991341 12.7875419 42.2821508 11.9312849"></polyline>
                        <polyline id="Fill-32" points="42.8211453 11.3656425 45.161648 12.3139106 42.6381285 12.221648 42.8211453 11.3656425"></polyline>
                        <polyline id="Fill-33" points="42.8782123 10.6101955 44.4082123 11.3855028 42.6946927 11.4662011 42.8782123 10.6101955"></polyline>
                        <path d="M71.7609218,16.7224022 C71.7609218,16.7799721 71.7571508,16.8345251 71.7556425,16.8915922 C71.7571508,16.8345251 71.7609218,16.7799721 71.7609218,16.7224022" id="Fill-34"></path>
                        <polyline id="Fill-35" points="58.8650279 10.5621788 58.8650279 13.2966201 65.5318156 12.8310335 59.1282402 12.737514 66.9843855 12.2289385 59.1282402 12.1929888 66.9843855 11.6859218 59.1282402 11.6517318 66.9843855 11.1431564 59.1282402 11.1074581 66.9843855 10.5973743 58.8650279 10.5621788"></polyline>
                        <polyline id="Fill-36" points="67.2624302 10.202933 67.6689385 7.41695531 62.3591899 7.5522067 61.9353352 9.81527933 56.8048324 9.94198324 61.8709777 10.1689944 67.2624302 10.202933"></polyline>
                        <polyline id="Fill-37" points="56.8048324 9.94198324 55.0402793 10.6230168 55.0402793 14.7182682 53.7777654 14.6425978 53.7777654 15.4827654 55.0402793 15.585838 55.0402793 16.4146927 55.3819274 16.4431006 55.6775698 11.0099162 55.7318715 16.472514 56.0310335 16.497905 56.3312011 11.0099162 56.3842458 16.5268156 56.836257 16.5645251 57.1452235 11.0099162 57.2017877 16.5941899 57.598743 16.6263687 57.9062011 11.0099162 57.957486 16.6550279 58.4758659 16.6990223 58.4758659 10.5672067 56.8048324 9.94198324"></polyline>
                        <polyline id="Fill-38" points="60.7982682 16.0541899 60.7982682 15.0621788 61.4086592 14.9168715 59.3034637 14.9731844 59.3034637 15.9320112 60.7982682 16.0541899"></polyline>
                        <path d="M59.8696089,20.4046089 L53.3418436,19.0855307 C53.3418436,19.0855307 53.3418436,17.2435475 53.3418436,17.2106145 L53.5598045,17.2307263 C53.5598045,17.8438827 53.5598045,18.9663687 53.5598045,18.9663687 L59.8696089,20.1343575 L59.8696089,20.4046089 Z M52.8533799,16.6148045 C52.8533799,16.6510056 52.8533799,19.5938547 52.8533799,19.5938547 L60.9031006,21.2201397 L60.9031006,17.2805028 L52.8533799,16.6148045 L52.8533799,16.6148045 Z" id="Fill-39"></path>
                        <polyline id="Fill-40" points="70.3618994 7.5072067 68.0143575 7.46170391 67.6161453 10.1958939 70.3618994 9.88692737 70.3618994 7.5072067"></polyline>
                        <path d="M81.7448883,18.1432961 C81.7106983,18.1432961 81.6782682,18.135 81.6455866,18.1206704 C81.8484637,17.9811453 81.9915084,17.5781564 81.9915084,17.1030168 C81.9915084,16.5808659 81.8160335,16.1482123 81.5880168,16.049162 C81.6370391,16.0152235 81.6888268,15.9961173 81.7448883,15.9961173 C82.021676,15.9961173 82.2461732,16.4770391 82.2461732,17.0700838 C82.2461732,17.6628771 82.021676,18.1432961 81.7448883,18.1432961 Z M79.7213966,18.4459777 C79.6834358,18.4459777 79.6505028,18.4389385 79.6165642,18.4228492 C79.8297486,18.2672346 79.9863687,17.8197486 79.9863687,17.2938268 C79.9863687,16.7171229 79.8000838,16.2359497 79.5544693,16.1288547 C79.6057542,16.0903911 79.6618156,16.0690223 79.7213966,16.0690223 C80.0157821,16.0690223 80.2581285,16.6014804 80.2581285,17.2598883 C80.2581285,17.9127654 80.0157821,18.4459777 79.7213966,18.4459777 Z M63.4092737,21.3051117 C64.1476257,21.377514 64.8321788,20.5768156 64.9377654,19.5169274 C65.0174581,18.735838 64.7607821,18.0324302 64.3238547,17.6842458 C65.0398324,17.789581 65.5318156,18.6936034 65.4269832,19.7341341 C65.3203911,20.7955307 64.6373464,21.5939665 63.8984916,21.5218156 C63.704162,21.5006983 63.5246648,21.4230168 63.3672905,21.2980726 L63.4092737,21.3051117 Z M82.7451955,16.3360056 C82.6981844,16.032067 82.6167318,15.7567877 82.5031006,15.523743 C82.4113408,15.3286592 82.2964525,15.1617318 82.1526536,15.0367877 C82.0131285,14.9110894 81.8341341,14.8231006 81.6370391,14.8231006 L81.6131564,14.8253631 L79.8837989,14.8253631 C79.8073743,14.7951955 79.7231564,14.774581 79.6359218,14.772067 L77.0289385,14.7698045 L77.0123464,13.0412011 L74.2960056,12.7928212 L82.6999441,12.7427933 L73.740419,12.118324 L73.740419,8.13393855 L80.5821788,8.20759777 L74.0931285,7.24902235 L82.3567877,7.72692737 L74.7837151,6.46567039 L82.6999441,7.27064246 L73.740419,5.42463687 L72.2317877,5.32935754 L72.2317877,15.7836872 L73.740419,15.7494972 L76.1196369,15.6964525 L76.152067,15.7248603 L76.1475419,15.7243575 C76.4509777,16.035838 76.6498324,16.5506983 76.6498324,17.1331844 C76.6498324,17.489162 76.5734078,17.8197486 76.4494693,18.0947765 L75.3689665,18.2043855 C75.4285475,17.9957263 75.4660056,17.762933 75.4660056,17.5225978 C75.4660056,16.6877095 75.0564804,15.9925978 74.5202514,15.8327095 C74.8209218,16.1434358 75.0207821,16.6593017 75.0207821,17.2422905 C75.0207821,17.622905 74.9348045,17.9776257 74.7920112,18.2609497 L73.7190503,18.3705587 C73.7932123,18.1450559 73.8339385,17.8946648 73.8339385,17.6312011 C73.8339385,16.7960615 73.4291899,16.1019553 72.8894413,15.9400559 C73.1926257,16.2550559 73.3894693,16.7684078 73.3894693,17.3493855 C73.3894693,17.7596648 73.2946927,18.135 73.1315363,18.4283799 L72.0696369,18.5349721 C72.1571229,18.2974022 72.2046369,18.0268994 72.2046369,17.7395531 C72.2046369,17.1442458 71.9977374,16.6193296 71.682486,16.3091061 L72.0007542,16.3091061 L72.0007542,4.05150838 C72.0007542,3.87427374 71.8551955,3.72519553 71.6749441,3.72519553 L71.6025419,3.72519553 C71.4225419,3.72519553 71.2762291,3.87427374 71.2762291,4.05150838 L71.2762291,5.35575419 C66.8345531,5.41608939 65.6632961,7.06625698 65.6632961,7.06625698 C65.3367318,7.06801676 65.0446089,7.11351955 64.7768715,7.18215084 L64.7768715,5.20868715 C64.7768715,5.07821229 64.6697765,4.97312849 64.5415642,4.97312849 L64.4880168,4.97312849 C64.3567877,4.97312849 64.2501955,5.07821229 64.2501955,5.20868715 L64.2501955,7.33324022 C64.0757263,7.38980447 63.9067877,7.44636872 63.737095,7.49312849 L66.227933,7.42877095 L66.9343575,7.41192737 L68.0103352,7.4327933 L71.2762291,7.48357542 L71.2762291,13.3765642 L66.5331285,13.8662849 L71.2762291,13.8662849 L66.5331285,14.3534916 L71.2762291,14.3534916 L66.5331285,14.8417039 L71.2762291,14.8417039 L66.5331285,15.331676 L71.2762291,15.331676 L66.5331285,15.8213966 L71.2762291,15.8213966 L66.6492737,16.2993017 C66.1009777,15.4008101 65.2424581,14.8200838 64.2413966,14.8200838 C62.9014525,14.8200838 61.6585475,15.7799162 61.1150279,17.2415363 C61.0564525,17.3971508 61.0049162,17.5593017 60.9641899,17.7272346 L61.3538547,17.7596648 L61.3355028,19.9862849 L61.335,20.2615642 L61.3176536,22.2868156 C61.5496927,22.4318715 61.8018436,22.5354469 62.0693296,22.587486 C62.2782402,22.6282123 63.1913128,22.8300838 63.495,22.8602514 C64.5827933,22.9696089 65.6037151,22.0653352 66.0456704,20.7276536 L66.6955307,20.7276536 C66.9667877,17.0152793 65.3543296,16.0423743 64.4153631,16.0423743 C63.480419,16.0423743 63.0072905,16.422486 63.0072905,16.422486 L63.0155866,16.422486 C62.6651397,16.6263687 62.3486313,16.9328212 62.0906983,17.3187151 L61.5773464,17.278743 C62.1113128,16.0169832 63.1764804,15.1831006 64.3522626,15.1831006 C66.0192737,15.1823464 67.3202514,16.9670112 67.2885754,19.0400279 C67.290838,19.0048324 67.2931006,18.9711453 67.2941061,18.9344413 C67.3325698,17.9459497 67.0939944,17.0288547 66.6568156,16.3091061 L71.4610056,16.3091061 C71.5530168,16.4609497 71.6289385,16.6394413 71.6812291,16.8345251 L67.9542737,16.8513687 L67.9542737,19.2062011 L70.8315084,18.7541899 C70.8315084,18.7541899 70.8315084,18.7541899 70.9800838,19.081257 L71.8313128,18.9962849 L72.7172346,18.9067877 L73.502095,18.8278492 L74.4297486,18.7335754 L75.1708659,18.660419 L76.1286872,18.5628771 L76.8325978,18.4919832 C76.907514,18.3559777 76.968352,18.2043855 77.0123464,18.0379609 C77.0289385,17.9811453 77.0384916,17.9250838 77.0503073,17.865 L77.3788827,17.865 C77.5138827,18.689581 77.8758939,19.2798603 78.3010056,19.2798603 C78.5531564,19.2798603 79.3525978,19.2798603 79.6052514,19.2798603 C79.8161732,19.2798603 80.0122626,19.1330447 80.1703911,18.8864246 L81.6186872,18.8937151 L81.6370391,18.8937151 C82.140838,18.8937151 82.5503631,18.0379609 82.5503631,16.9800838 C82.5503631,16.7538268 82.5337709,16.5373743 82.4990782,16.3360056 L82.7451955,16.3360056 L82.7451955,16.3360056 Z" id="Fill-41"></path>
                        <path d="M44.742067,1.37790503 L47.5546927,0.233044693 C47.5546927,0.233044693 48.7201676,0.317513966 48.447905,2.46469274 C48.1758939,4.61061453 47.7585754,4.7403352 47.7585754,4.7403352 L46.7864246,2.51145251 L45.5131006,1.63432961 L44.742067,1.37790503" id="Fill-42"></path>
                        <path d="M44.1098045,4.17846369 C44.2905587,5.65868715 45.3401397,6.8098324 46.4538268,6.74849162 C47.5680168,6.68740223 48.3247207,5.4372067 48.1424581,3.95698324 C47.9622067,2.47575419 46.9123743,1.32561453 45.7986872,1.38620112 C44.685,1.4475419 43.9290503,2.69773743 44.1098045,4.17846369" id="Fill-43"></path>
                        <path d="M47.4041061,0.289106145 L44.5741341,1.46463687 C44.5741341,1.46463687 43.2472626,4.14804469 44.9801397,6.09134078 C44.9801397,6.09134078 44.4539665,4.83310056 45.3315922,2.79402235 C45.9588268,1.33567039 47.4041061,0.289106145 47.4041061,0.289106145" id="Fill-44"></path>
                        <path d="M44.7418156,7.99290503 L47.5546927,6.84804469 C47.5546927,6.84804469 48.7201676,6.93301676 48.447905,9.08019553 C48.1758939,11.2261173 47.7585754,11.3555866 47.7585754,11.3555866 L46.7864246,9.12670391 L45.5125978,8.24958101 L44.7418156,7.99290503" id="Fill-45"></path>
                        <path d="M44.1095531,10.7937151 C44.2905587,12.2744413 45.3401397,13.4250838 46.453324,13.363743 C47.5680168,13.302905 48.3244693,12.0524581 48.1424581,10.572486 C47.9622067,9.09100559 46.9123743,7.94086592 45.7984358,8.00145251 C44.685,8.0627933 43.9287989,9.31273743 44.1095531,10.7937151" id="Fill-46"></path>
                        <path d="M47.4041061,6.90435754 L44.5741341,8.07988827 C44.5741341,8.07988827 43.2472626,10.7632961 44.9801397,12.7065922 C44.9801397,12.7065922 44.4539665,11.448352 45.3315922,9.40927374 C45.9585754,7.95092179 47.4041061,6.90435754 47.4041061,6.90435754" id="Fill-47"></path>
                        <path d="M44.7418156,14.5898045 L47.5546927,13.4449441 C47.5546927,13.4449441 48.7201676,13.5294134 48.447905,15.6768436 C48.1758939,17.822514 47.7585754,17.9527374 47.7585754,17.9527374 L46.7861732,15.7231006 L45.5125978,14.8462291 L44.7418156,14.5898045" id="Fill-48"></path>
                        <path d="M44.1095531,17.3901117 C44.2905587,18.870838 45.3401397,20.0217318 46.453324,19.9603911 C47.5680168,19.8993017 48.3244693,18.6491061 48.1424581,17.1688827 C47.9619553,15.687905 46.9123743,14.5377654 45.7984358,14.5981006 C44.685,14.6591899 43.9287989,15.9096369 44.1095531,17.3901117" id="Fill-49"></path>
                        <path d="M47.4041061,13.5015084 L44.5741341,14.6765363 C44.5741341,14.6765363 43.2470112,17.3601955 44.9801397,19.3034916 C44.9801397,19.3034916 44.4539665,18.0452514 45.3315922,16.0056704 C45.9585754,14.5475698 47.4041061,13.5015084 47.4041061,13.5015084" id="Fill-50"></path>
                    </g>
                </g>
            </g>
        </g>
    </g>
</svg>