<?xml version="1.0" encoding="UTF-8"?>
<svg width="100px" height="45px" viewBox="0 0 100 45" version="1.1" xmlns="http://www.w3.org/2000/svg" xmlns:xlink="http://www.w3.org/1999/xlink">
    <!-- Generator: sketchtool 58 (101010) - https://sketch.com -->
    <title>1FA635D0-B7D0-4989-81CA-57020861616D</title>
    <desc>Created with sketchtool.</desc>
    <g id="Page-1" stroke="none" stroke-width="1" fill="none" fill-rule="evenodd" opacity="0.92">
        <g id="Sign-Up" transform="translate(-773.000000, -939.000000)" fill="#3C4152">
            <g id="Group-2" transform="translate(473.000000, 890.000000)">
                <g id="Group" transform="translate(0.000000, 49.000000)">
                    <g id="CDLM-Logo-Final-03" transform="translate(300.000000, 0.000000)">
                        <path d="M10.6982609,24.3327019 C10.1663665,24.975 9.63447205,25.6167391 9.10257764,26.2576398 C7.76347826,26.1399689 6.42465839,26.0167081 5.08611801,25.8878571 C2.31456522,25.6206522 0.269440994,23.6420497 0.269440994,21.3188199 C0.269440994,18.9723913 2.31456522,17.6081366 5.08611801,17.8750621 C6.95627329,18.0553416 8.82698758,18.224441 10.6982609,18.3829193 C10.1663665,19.0330435 9.63447205,19.6820497 9.10257764,20.3304969 C7.76347826,20.2125466 6.42465839,20.0892857 5.08611801,19.9604348 C3.75149068,19.8321429 2.74444099,20.5334161 2.74444099,21.6785404 C2.74444099,22.8228261 3.73975155,23.6951553 5.08611801,23.8248447 C6.95627329,24.0051242 8.82698758,24.1742236 10.6982609,24.3327019" id="Fill-3"></path>
                        <path d="M16.3249379,26.8381677 C14.5391925,26.7081988 12.7537267,26.5681677 10.9688199,26.418354 C11.5219565,25.7771739 12.0748137,25.1351553 12.6279503,24.4917391 C13.86,24.5909627 15.0923292,24.6854348 16.3249379,24.7754348 C17.6956211,24.8749379 18.6931677,24.1823292 18.6931677,23.0265839 C18.6931677,21.9040994 17.6618012,21.0080124 16.3249379,20.9104658 C14.5391925,20.7807764 12.7537267,20.6407453 10.9688199,20.4909317 C11.4934472,19.8396894 12.0180745,19.1878882 12.5429814,18.5349689 C13.8032609,18.6369876 15.0640994,18.7334161 16.3249379,18.8256522 C19.123882,19.0291304 21.152236,20.7721118 21.152236,23.085 C21.152236,25.4073913 19.1009627,27.0402484 16.3249379,26.8381677" id="Fill-4"></path>
                        <path d="M30.735,25.6075155 C30.198354,26.2721739 29.6617081,26.9359938 29.1250621,27.5986957 C26.7660559,27.4902484 24.4073292,27.363913 22.0497205,27.220528 C22.0497205,24.5495963 22.0497205,21.8786646 22.0497205,19.2080124 C22.8734161,19.257764 23.6973913,19.3058385 24.521087,19.351677 C24.521087,21.3350311 24.521087,23.3183851 24.521087,25.3014596 C26.592205,25.4171739 28.663323,25.518913 30.735,25.6075155" id="Fill-5"></path>
                        <path d="M49.2280435,24.4358385 C48.9457453,23.9615217 48.6634472,23.4869255 48.3814286,23.0120497 C48.101087,23.4835714 47.8210248,23.9545342 47.5406832,24.4254969 C48.103323,24.4296894 48.6654037,24.433323 49.2280435,24.4358385 Z M51.436118,28.1481988 C51.0747205,27.542236 50.713323,26.9359938 50.3519255,26.3291925 C49.0416149,26.3263975 47.7313043,26.3185714 46.4212733,26.3051553 C46.0626708,26.907764 45.7037888,27.5095342 45.3446273,28.1110248 C44.5273602,28.1009627 43.7100932,28.0889441 42.8928261,28.0744099 C44.5100311,25.3769255 46.1275155,22.6707764 47.7447205,19.9568012 C48.1980745,19.9601553 48.6511491,19.9629503 49.1045031,19.9651863 C50.7253416,22.6987267 52.3467391,25.423882 53.9678571,28.1412112 C53.1237578,28.1456832 52.2802174,28.1481988 51.436118,28.1481988 L51.436118,28.1481988 Z" id="Fill-6"></path>
                        <path d="M40.9762733,28.037236 C40.5941925,26.6268634 40.2123913,25.2162112 39.8305901,23.8047205 C39.2738199,25.0680745 38.7170497,26.3300311 38.1608385,27.5911491 C37.5400621,27.5740994 36.9192857,27.5559317 36.2985093,27.536646 C35.7453727,26.2442236 35.1919565,24.9509627 34.6388199,23.6565839 C34.2570186,25.0443168 33.8754969,26.4314907 33.4942547,27.8183851 C32.7798447,27.7921118 32.0657143,27.763882 31.3513043,27.7345342 C32.0972981,25.0392857 32.8432919,22.3426398 33.5895652,19.6437578 C34.106087,19.6630435 34.6228882,19.6809317 35.1399689,19.6985404 C35.8499068,21.3495652 36.5598447,22.9986335 37.2697826,24.6468634 C37.9797205,23.0402795 38.6896584,21.4322981 39.3998758,19.8226398 C39.9007453,19.8349379 40.4016149,19.846677 40.9024845,19.8575776 C41.6445652,22.5995031 42.386646,25.3400311 43.1290062,28.0786025 C42.4112422,28.0663043 41.6937578,28.0526087 40.9762733,28.037236" id="Fill-7"></path>
                        <path d="M69.2396273,24.1074224 C68.9573292,23.6448447 68.6753106,23.1819876 68.3930124,22.7188509 C68.1129503,23.2021118 67.8328882,23.6845342 67.5528261,24.167236 C68.1151863,24.1479503 68.6772671,24.1281056 69.2396273,24.1074224 Z M71.4465839,27.7283851 C71.0851863,27.1375155 70.7240683,26.5463665 70.3626708,25.9540994 C69.0534783,26.006087 67.7437267,26.0524845 66.4342547,26.0932919 C66.0750932,26.7107143 65.7164907,27.3275776 65.3576087,27.9441615 C64.5406211,27.9679193 63.723354,27.9897205 62.9063665,28.0092857 C64.5235714,25.2441615 66.1404969,22.4712112 67.7571429,19.6901553 C68.2099379,19.6747826 68.6630124,19.6585714 69.1158075,19.6418012 C70.736087,22.3079814 72.3563665,24.9660559 73.976087,27.6160248 C73.1328261,27.6557143 72.2898447,27.6931677 71.4465839,27.7283851 L71.4465839,27.7283851 Z" id="Fill-8"></path>
                        <path d="M61.0697516,28.1392547 C59.4913975,26.5854969 57.912764,25.0241925 56.3344099,23.4550621 C56.3344099,25.0107764 56.3344099,26.5664907 56.3344099,28.122205 C55.6437578,28.129472 54.9528261,28.1350621 54.2624534,28.1395342 C54.2624534,25.4132609 54.2624534,22.6872671 54.2624534,19.9612733 C54.7745031,19.9579193 55.2865528,19.9542857 55.7986025,19.9495342 C57.3822671,21.5041304 58.9659317,23.0506211 60.5495963,24.5895652 C60.5495963,23.0299379 60.5495963,21.4708696 60.5495963,19.9118012 C61.2399689,19.8983851 61.9306211,19.8838509 62.6209938,19.8676398 C62.6209938,22.6134783 62.6209938,25.3593168 62.6209938,28.1054348 C62.103913,28.1174534 61.5871118,28.1286335 61.0697516,28.1392547" id="Fill-9"></path>
                        <path d="M77.131677,27.4572671 C74.884472,27.5780124 73.1890062,25.8811491 73.1890062,23.533323 C73.1890062,22.3993789 73.5892547,21.3613043 74.3156832,20.6074845 C75.0300932,19.8665217 76.0304348,19.4277019 77.131677,19.3684472 C78.6650311,19.2862733 80.1986646,19.1968323 81.7314596,19.0998447 C81.1922981,19.8436025 80.6531366,20.5862422 80.1139752,21.328323 C79.1197826,21.3878571 78.1258696,21.4440373 77.131677,21.4971429 C76.0645342,21.5541615 75.3190994,22.3725466 75.3190994,23.4919565 C75.3190994,24.6108075 76.0813043,25.3853106 77.131677,25.3288509 C78.0174224,25.2813354 78.9028882,25.2313043 79.788354,25.1793168 C79.788354,24.8425155 79.788354,24.5054348 79.788354,24.1686335 C78.8260248,24.2256522 77.8639752,24.2793168 76.901646,24.3304658 C77.4156522,23.6599379 77.9293789,22.9885714 78.4433851,22.3163665 C79.605,22.2509627 80.7660559,22.1813665 81.9268323,22.1075776 C81.9268323,23.7971739 81.9268323,25.4867702 81.9268323,27.176087 C80.3286335,27.2781056 78.7304348,27.3717391 77.131677,27.4572671" id="Fill-10"></path>
                        <path d="M82.9663043,27.1090062 C82.9663043,24.4129193 82.9663043,21.7165528 82.9663043,19.0201863 C85.5313043,18.8513665 88.0954658,18.6624224 90.6579503,18.452795 C90.1159938,19.2066149 89.5740373,19.9595963 89.0318012,20.7117391 C87.7161801,20.8148758 86.400559,20.9127019 85.0843789,21.0049379 C85.0843789,21.3023292 85.0843789,21.5991615 85.0843789,21.8962733 C86.128882,21.8230435 87.1733851,21.7464596 88.2173292,21.6662422 C88.2173292,22.3093789 88.2173292,22.952795 88.2173292,23.5959317 C87.1733851,23.6761491 86.1286025,23.7527329 85.0843789,23.8262422 C85.0843789,24.1630435 85.0843789,24.4998447 85.0843789,24.836646 C86.94,24.706677 88.7947826,24.565528 90.6490062,24.4137578 C90.1014596,25.1681366 89.5536335,25.9213975 89.0058075,26.6738199 C86.9933851,26.8317391 84.9801242,26.9768012 82.9663043,27.1090062" id="Fill-11"></path>
                        <path d="M96.791646,25.9999379 C95.4575776,24.795559 94.1229503,23.5853106 92.7880435,22.3691925 C93.6768634,22.2951242 94.5656832,22.2179814 95.4545031,22.1386025 C96.1074224,22.0785093 96.3992236,21.737236 96.3992236,21.0340062 C96.3989441,20.3721429 96.1077019,20.1046584 95.4533851,20.1650311 C93.736118,20.3226708 92.0185714,20.471087 90.3001863,20.610559 C90.8457764,19.8567391 91.391646,19.1020807 91.9369565,18.3463043 C93.1091925,18.2470807 94.2814286,18.1436646 95.4533851,18.0360559 C97.3067702,17.865559 98.5036025,18.9491925 98.5036025,20.8120807 C98.5036025,21.914441 98.0734472,22.8398758 97.3036957,23.4343789 C98.1335404,24.1940683 98.9631056,24.9512422 99.7926708,25.7064596 C98.7926087,25.8073602 97.7922671,25.9054658 96.791646,25.9999379" id="Fill-12"></path>
                        <path d="M26.2995652,10.8570186 L24.4431056,13.8390373 L24.1918323,10.3357453 L20.7821739,9.49220497 L24.0361491,8.17015528 L23.7848758,4.66658385 L26.0474534,7.3534472 L29.3019876,6.03139752 L27.446087,9.01397516 L29.7089441,11.7002795 L26.2995652,10.8570186 Z M32.7485404,3.45102484 C28.6725466,2.60049689 25.0957453,1.65940994 23.3499689,0.779534161 C22.4175466,0.309689441 21.8219255,0.181677019 21.4404037,0.20878882 L20.6890994,1.38270186 C20.4780745,2.92751553 19.7552795,7.06863354 17.8513043,9.4052795 C17.416118,9.93940994 17.1030745,10.5914907 16.8836646,11.3162422 L21.825,17.3342236 C22.8935404,17.3996273 23.9623602,17.461677 25.0314596,17.5198137 L33.387764,14.2471118 L32.7485404,3.45102484 L32.7485404,3.45102484 Z" id="Fill-13"></path>
                        <path d="M73.6594099,33.2418634 C74.1899068,31.9175776 75.0334472,30.5958075 76.0863354,29.3668323 C74.1879503,29.4646584 68.0201553,29.6980435 66.4186025,29.7698758 C66.3562733,29.7718323 66.2939441,29.7729503 66.2316149,29.7749068 C67.2884161,30.6891615 68.7815217,31.5913975 71.3546273,32.5081677 C72.0609317,32.759441 72.8292857,33.0040062 73.6594099,33.2418634" id="Fill-14"></path>
                        <path d="M60.0216149,18.0617702 C59.491118,17.8418012 58.8988509,17.6349689 58.226087,17.4404348 C52.0560559,15.656087 42.0828261,13.3784161 37.3142236,12.3149068 L37.5836646,16.8643789 C38.654441,17.2204658 44.6788509,19.1644099 45.8292857,19.5221739 C46.1143789,19.0447826 46.3997516,18.5682298 46.6845652,18.0902795 C47.8442236,18.1014596 59.5774845,18.0695963 60.0216149,18.0617702" id="Fill-15"></path>
                        <path d="M26.3797826,21.4979814 C26.3797826,21.7436646 26.3797826,21.9896273 26.3797826,22.2353106 C27.7186025,22.7157764 29.1068944,23.2107764 30.5153106,23.7080124 C30.9119255,22.276118 31.3082609,20.8442236 31.7048758,19.4120497 L26.3797826,21.4979814" id="Fill-16"></path>
                        <path d="M73.1364596,37.2915839 C71.9910559,36.9790994 70.9454348,36.6543168 69.9981988,36.3169565 C64.4998137,34.3587578 62.6931056,32.1146273 61.2413665,30.3115528 C61.156118,30.2053416 61.0717081,30.100528 60.9875776,29.9973913 C60.7572671,30.0021429 49.5522671,29.9806211 49.5522671,29.9806211 C55.1750311,31.4326398 56.7631677,33.3718323 58.3426398,35.3342236 C58.8113665,35.9158696 59.2691925,36.4840994 59.8664907,37.0470186 C61.2830124,36.7979814 62.6964596,36.7015528 63.9986646,36.8477329 C69.2815528,37.4408385 71.1687578,41.0525776 72.2468012,42.4003416 C73.3254037,43.7481056 74.295559,45.0961491 74.9423292,44.5567081 C75.5890994,44.0175466 75.4275466,41.807236 73.7563975,38.9501553 C73.4492236,38.4252484 73.2468634,37.8687578 73.1364596,37.2915839" id="Fill-17"></path>
                        <path d="M49.8739752,41.0525776 C50.7247826,40.3613665 52.3749689,39.377236 54.9818944,38.433354 C54.8790373,38.3075776 54.7786957,38.1831988 54.6808696,38.0616149 C53.3557453,36.4153416 52.8210559,34.922795 48.4963043,33.8061801 C45.2071118,32.9567702 40.2093168,31.3387267 34.966118,29.5431988 C34.9490683,29.6044099 34.9322981,29.6656211 34.915528,29.7265528 C32.9154037,29.658354 30.915,29.5778571 28.9154348,29.4847826 C28.9193478,29.471646 28.9227019,29.4585093 28.9263354,29.4459317 C26.4373602,29.3299379 23.9492236,29.1946584 21.461646,29.0406522 C23.8178571,31.6190683 27.0695963,33.8665528 31.0592236,34.0979814 C39.415528,34.5831988 39.5770807,38.1952174 40.7632919,39.2195963 C41.7865528,40.1033851 42.0028882,37.8181677 42.8657143,37.98 C43.7279814,38.1415528 45.2918012,41.4301863 46.1543478,42.5082298 C47.0166149,43.5862733 48.418323,44.9882609 49.6045342,44.7724845 C50.7907453,44.5567081 48.1491615,42.4545652 49.8739752,41.0525776" id="Fill-18"></path>
                        <path d="M59.4841304,13.0894099 C63.6227329,14.2859627 65.6863043,16.0482298 67.4248137,17.8418012 C68.3413043,17.8113354 78.4042547,17.4409938 79.0404037,17.4046584 C80.3015217,13.8359627 82.1504348,9.51959627 83.9993478,8.27496894 C86.802764,6.38804348 85.7644099,5.53667702 84.3898137,4.86251553 C83.5767391,4.4639441 82.8774224,4.21658385 81.0340994,6.44226708 C79.6186957,8.15114907 77.7052174,8.77136646 76.1950621,9.68757764 C74.6857453,10.6040683 70.7503416,15.9680124 66.8149379,13.3267081 C61.0540994,9.45978261 55.6965839,6.33437888 52.246118,6.44226708 C50.3762422,6.50068323 43.5300932,5.62835404 36.8463354,4.41195652 L37.036118,7.61254658 C41.0917081,8.50723602 52.4870497,11.0658075 59.4841304,13.0894099" id="Fill-19"></path>
                    </g>
                </g>
            </g>
        </g>
    </g>
</svg>