<?xml version="1.0" encoding="UTF-8"?>
<svg width="92px" height="45px" viewBox="0 0 92 45" version="1.1" xmlns="http://www.w3.org/2000/svg" xmlns:xlink="http://www.w3.org/1999/xlink">
    <!-- Generator: sketchtool 58 (101010) - https://sketch.com -->
    <title>6667110E-F0A8-44A5-9246-A5F0C2A7943F</title>
    <desc>Created with sketchtool.</desc>
    <g id="Page-1" stroke="none" stroke-width="1" fill="none" fill-rule="evenodd" opacity="0.92">
        <g id="Sign-Up" transform="translate(-641.000000, -939.000000)" fill="#3C4152">
            <g id="Group-2" transform="translate(473.000000, 890.000000)">
                <g id="Group" transform="translate(0.000000, 49.000000)">
                    <g id="CDL360-Logo-Final-03" transform="translate(168.000000, 0.000000)">
                        <path d="M21.8822981,10.8673602 L20.027236,13.8468634 L19.7759627,10.346087 L16.3693789,9.5036646 L19.620559,8.18301242 L19.3695652,4.68223602 L21.6299068,7.36686335 L24.881646,6.04593168 L23.0279814,9.02543478 L25.288882,11.7100621 L21.8822981,10.8673602 Z M28.3256832,3.46751553 C24.252764,2.61754658 20.6793168,1.67757764 18.9352174,0.798540373 C18.003354,0.328695652 17.4082919,0.200962733 17.0273292,0.228074534 L16.2765839,1.40142857 C16.065559,2.94456522 15.343323,7.0826087 13.4413043,9.41673913 C13.006118,9.95031056 12.6936335,10.6021118 12.4745031,11.3257453 L15.9079193,15.5073913 L16.5485404,15.5414907 L16.5490994,15.5409317 L17.6534161,15.5937578 C19.4154037,15.6801242 21.2053416,15.7592236 22.9748758,15.8290994 C23.5073292,15.8503416 24.0224534,15.9081988 24.521646,15.9940062 L28.9640683,14.2540994 L28.3256832,3.46751553 L28.3256832,3.46751553 Z" id="Fill-3"></path>
                        <path d="M45.4363043,41.036087 C46.2862733,40.3457143 47.9345031,39.3624224 50.5391925,38.4196584 C50.4368944,38.2936025 50.3365528,38.1697826 50.2387267,38.0484783 C48.915,36.4030435 48.3808696,34.9121739 44.059472,33.7963975 C42.2524845,33.3296273 39.9284161,32.6305901 37.3321118,31.7979503 C35.191118,31.7669255 33.0464907,31.7286335 30.917795,31.6738509 L28.8338199,31.6204658 L29.1440683,29.4252484 C27.6269255,30.6743478 25.5731366,31.4183851 23.2465528,31.4183851 C23.1006522,31.4183851 22.9525155,31.4155901 22.8057764,31.4097205 C21.6986646,31.366118 20.5842857,31.317764 19.4710248,31.2671739 C21.4719876,32.8002484 23.8776708,33.9280435 26.6380435,34.0884783 C34.9865217,34.5731366 35.148354,38.1820807 36.3331677,39.2053416 C37.3558696,40.0885714 37.572205,37.8050311 38.433913,37.9660248 C39.2959006,38.1281366 40.857764,41.4139752 41.719472,42.4909006 C42.5814596,43.5681056 43.9814907,44.9689752 45.1665839,44.7531988 C46.352236,44.5377019 43.7126087,42.4375155 45.4363043,41.036087" id="Fill-4"></path>
                        <path d="M36.6003727,24.6021429 C38.8145963,24.6376398 41.04,24.660559 43.2408075,24.6700621 L44.4667081,24.6756522 C41.8290373,23.8991925 39.1184161,23.0539752 36.6003727,22.2450932 L36.6003727,24.6021429" id="Fill-5"></path>
                        <path d="M68.6786646,37.2787267 C67.5343789,36.9665217 66.4895963,36.6422981 65.5431988,36.3049379 C61.0292236,34.697236 59.0053416,32.896677 57.6226398,31.3065839 C56.6768012,31.5997826 55.6451553,31.767205 54.5808075,31.7825776 C53.0944099,31.8052174 51.5971118,31.8219876 50.0992547,31.8328882 C51.9657764,32.9257453 52.9423602,34.1365528 53.8971429,35.322764 C54.3658696,35.9046894 54.8234161,36.4723602 55.4204348,37.0341615 C56.8358385,36.7856832 58.2473292,36.6898137 59.5486957,36.8354348 C64.8271118,37.4277019 66.7123602,41.036087 67.7904037,42.3830124 C68.8667702,43.7302174 69.8363665,45.0763043 70.4825776,44.5377019 C71.1287888,43.9988199 70.9675155,41.7907453 69.2980435,38.9361801 C68.9908696,38.4115528 68.7887888,37.8556211 68.6786646,37.2787267" id="Fill-6"></path>
                        <path d="M34.5032609,16.1698137 L36.6003727,16.2106211 L36.6003727,18 C38.8517702,18.7306211 41.3024534,19.5062422 43.7441925,20.2444099 L43.9566149,19.9861491 C44.7621429,19.0067702 45.5679503,18.0257143 46.3740373,17.0432609 L47.0124224,16.2637267 L48.0200311,16.2603727 C48.4767391,16.2586957 48.9373602,16.2542236 49.3963043,16.2514286 C43.5949379,14.7454658 36.6336335,13.1595652 32.8874534,12.3244099 L33.1130124,16.1401863 C33.5781056,16.150528 34.0429193,16.1603106 34.5032609,16.1698137" id="Fill-7"></path>
                        <path d="M68.0648758,31.4413043 C67.9228882,31.4468944 67.7789441,31.4491304 67.6380745,31.4491304 C65.0336646,31.4491304 62.7688509,30.5225776 61.2145342,29.0001242 C61.1801553,29.0437267 61.1399068,29.0848137 61.1038509,29.1278571 C62.1981056,30.2623602 63.7283851,31.3703106 66.8985093,32.4992236 C67.6036957,32.7504969 68.3714907,32.9950621 69.2010559,33.2323602 C69.4528882,32.6034783 69.7779503,31.9757143 70.1603106,31.3574534 C69.4595963,31.3868012 68.759441,31.4147516 68.0648758,31.4413043" id="Fill-8"></path>
                        <path d="M55.0380745,13.097236 C58.861118,14.2032298 60.9118323,15.7919255 62.5723602,17.4415528 C64.0579193,16.4918012 65.9110248,15.9361491 67.902205,15.8595652 C70.2958696,15.7690062 72.7241925,15.6608385 75.1209317,15.5403727 L75.2735404,15.5322671 C76.4700932,12.4577329 78.0003727,9.31835404 79.5320497,8.28726708 C82.3326708,6.40229814 81.2954348,5.55121118 79.921677,4.8776087 C79.1091615,4.47959627 78.4112422,4.23251553 76.5693168,6.45652174 C75.1553106,8.1634472 73.2429503,8.78310559 71.7347516,9.69903727 C70.2265528,10.6146894 66.2945031,15.9736025 62.3624534,13.3342547 C56.6063665,9.47096273 51.2530435,6.34891304 47.8056522,6.45652174 C45.9377329,6.51493789 39.0977329,5.6428882 32.4201242,4.42732919 L32.6090683,7.62568323 C36.6613043,8.51981366 48.0471429,11.0758696 55.0380745,13.097236" id="Fill-9"></path>
                        <path d="M14.944472,25.9937888 C14.1934472,26.9239752 13.4418634,27.8524845 12.690559,28.7801553 C10.798882,28.6719876 8.90748447,28.5551553 7.01748447,28.4279814 C3.10164596,28.1669255 0.21242236,25.4526708 0.21242236,22.1757764 C0.212981366,18.8636646 3.10164596,16.8596273 7.01748447,17.1218012 C9.65878882,17.2987267 12.3009317,17.4569255 14.944472,17.597236 C14.1934472,18.538323 13.4418634,19.4780124 12.690559,20.4157453 C10.798882,20.3081366 8.90748447,20.1913043 7.01748447,20.0646894 C5.13111801,19.9375155 3.70928571,20.9691615 3.70872671,22.5841304 C3.70872671,24.1993789 5.11518634,25.3906211 7.01748447,25.517795 C9.65878882,25.6947205 12.3009317,25.8529193 14.944472,25.9937888" id="Fill-10"></path>
                        <path d="M22.8904658,29.2729193 C20.3682298,29.1736957 17.8471118,29.0574224 15.3262733,28.9252174 C16.1074845,27.9955901 16.8881366,27.0648447 17.6693478,26.1318634 C19.4092547,26.2171118 21.15,26.2934161 22.8904658,26.3621739 C24.8263043,26.4387578 26.233882,25.4124224 26.234441,23.7818012 C26.233882,22.1981366 24.7779503,20.9834161 22.8904658,20.9087888 C20.3682298,20.8087267 17.8471118,20.6924534 15.3262733,20.561087 C16.0669565,19.6186025 16.8087578,18.6752795 17.549441,17.731118 C19.3295963,17.817205 21.109472,17.8957453 22.8904658,17.9656211 C26.8426398,18.1218634 29.7061491,20.4805901 29.7061491,23.7440683 C29.7053106,27.0218012 26.8102174,29.4274845 22.8904658,29.2729193" id="Fill-11"></path>
                        <path d="M43.2313043,26.8088199 C42.4741304,27.7761801 41.717236,28.7413043 40.9595031,29.7058696 C37.6306211,29.6776398 34.3011801,29.6214596 30.9725776,29.5362112 C30.9725776,25.7668323 30.9725776,21.9977329 30.9725776,18.228913 C32.1358696,18.2588199 33.298882,18.2850932 34.4618944,18.3074534 C34.4618944,21.1063975 34.4618944,23.9050621 34.4618944,26.7040062 C37.3846584,26.7607453 40.3077019,26.7962422 43.2313043,26.8088199" id="Fill-12"></path>
                        <path d="M60.1501863,25.9993789 C60.1501863,28.126118 57.5580745,29.6004969 54.5495031,29.6449379 C50.9464286,29.698323 47.3430745,29.7190062 43.7408385,29.7058696 C44.462795,28.7385093 45.1855901,27.7691925 45.9078261,26.7990373 C48.9060559,26.7984783 51.9034472,26.775 54.9019565,26.7280435 C55.8458385,26.7137888 56.6611491,26.458882 56.6611491,26.0904969 C56.6611491,25.7548137 55.8458385,25.513882 54.9019565,25.5286957 C52.6452484,25.5636335 50.3874224,25.5859938 48.1307143,25.5940994 C48.1307143,24.6191925 48.1307143,23.6437267 48.1307143,22.6688199 C50.3874224,22.6598758 52.6452484,22.6375155 54.9019565,22.6025776 C55.621118,22.591118 56.2131056,22.3082609 56.2131056,21.9088509 C56.2131056,21.5086025 55.6046273,21.2640373 54.9019565,21.2743789 C51.8042236,21.3224534 48.7062112,21.3464907 45.6084783,21.3453727 C46.4145652,20.3648758 47.2212112,19.3829814 48.0278571,18.3985714 C50.2015528,18.3904658 52.3752484,18.3697826 54.5495031,18.3379193 C57.6858075,18.2909627 60.1501863,19.7932919 60.1501863,21.8568634 C60.1501863,22.6249379 59.8136646,23.3362733 59.1582298,23.9754969 C59.8136646,24.568323 60.1496273,25.2469565 60.1501863,25.9993789" id="Fill-13"></path>
                        <path d="M72.2381366,26.2148758 C72.7342547,26.1930745 72.9732298,25.9096584 72.9732298,25.3500932 C72.9732298,24.8380435 72.6537578,24.4369565 72.2381366,24.4565217 C69.7706832,24.568323 67.3012733,24.6650311 64.8324224,24.7458075 C65.295559,25.8976398 66.3358696,26.455528 67.9840994,26.3934783 C69.4022981,26.3386957 70.8204969,26.2791615 72.2381366,26.2148758 Z M75.2290994,17.6757764 C74.4079193,18.6976398 73.5861801,19.7192236 72.7652795,20.7377329 C71.1718323,20.8120807 69.5781056,20.8786025 67.9840994,20.9398137 C66.8803416,20.9811801 66.0314907,21.3160248 65.4244099,21.9432298 C67.6956522,21.866646 69.9677329,21.776646 72.2381366,21.6729503 C74.5577329,21.5675776 76.0441304,23.1347516 76.0435716,25.198882 C76.0435716,27.3247826 74.4934472,29.0241615 72.2381366,29.1267391 C70.8204969,29.1907453 69.4022981,29.25 67.9840994,29.3042236 C64.0646273,29.4537578 61.1519255,27.0598137 61.1519255,23.7664286 C61.1519255,20.4708075 64.0486957,18.1470186 67.9840994,17.9969255 C70.3995652,17.9052484 72.8147516,17.7981988 75.2290994,17.6757764 L75.2290994,17.6757764 Z" id="Fill-14"></path>
                        <path d="M83.7807764,20.1219876 C81.8631056,20.2480435 80.457205,21.465559 80.457205,23.0813665 C80.457205,24.7279193 81.8471739,25.7022671 83.7807764,25.5756522 C84.0683851,25.557205 84.3559938,25.5379193 84.643882,25.518913 C86.577205,25.3895031 87.9828261,24.2136335 87.9828261,22.5835714 C87.9822671,20.9993478 86.5296894,19.9397516 84.643882,20.0658075 C84.3559938,20.0842547 84.0683851,20.1035404 83.7807764,20.1219876 Z M84.643882,28.4296584 C84.3559938,28.4486646 84.0683851,28.4679503 83.7807764,28.4869565 C79.8663354,28.7424224 76.9561491,26.4289752 76.9561491,23.1347516 C76.9561491,19.8391304 79.8495652,17.4373602 83.7807764,17.1796584 C84.0683851,17.1609317 84.3559938,17.1419255 84.643882,17.1229193 C88.5742547,16.8596273 91.4645963,18.8795963 91.4645963,22.1757764 C91.4645963,25.4526708 88.5423913,28.1686025 84.643882,28.4296584 L84.643882,28.4296584 Z" id="Fill-15"></path>
                    </g>
                </g>
            </g>
        </g>
    </g>
</svg>